<?xml version="1.0" encoding="utf-8" standalone="no"?>
<!DOCTYPE svg PUBLIC "-//W3C//DTD SVG 1.1//EN"
  "http://www.w3.org/Graphics/SVG/1.1/DTD/svg11.dtd">
<svg xmlns:xlink="http://www.w3.org/1999/xlink" width="460.8pt" height="345.6pt" viewBox="0 0 460.8 345.6" xmlns="http://www.w3.org/2000/svg" version="1.1">
 <metadata>
  <rdf:RDF xmlns:dc="http://purl.org/dc/elements/1.1/" xmlns:cc="http://creativecommons.org/ns#" xmlns:rdf="http://www.w3.org/1999/02/22-rdf-syntax-ns#">
   <cc:Work>
    <dc:type rdf:resource="http://purl.org/dc/dcmitype/StillImage"/>
    <dc:date>2022-06-18T20:28:54.812294</dc:date>
    <dc:format>image/svg+xml</dc:format>
    <dc:creator>
     <cc:Agent>
      <dc:title>Matplotlib v3.5.2, https://matplotlib.org/</dc:title>
     </cc:Agent>
    </dc:creator>
   </cc:Work>
  </rdf:RDF>
 </metadata>
 <defs>
  <style type="text/css">*{stroke-linejoin: round; stroke-linecap: butt}</style>
 </defs>
 <g id="figure_1">
  <g id="patch_1">
   <path d="M 0 345.6 
L 460.8 345.6 
L 460.8 0 
L 0 0 
z
" style="fill: #ffffff"/>
  </g>
  <g id="axes_1">
   <g id="patch_2">
    <path d="M 54.56 303.64 
L 450 303.64 
L 450 10.8 
L 54.56 10.8 
z
" style="fill: #ffffff"/>
   </g>
   <g id="matplotlib.axis_1">
    <g id="xtick_1">
     <g id="line2d_1">
      <path d="M 74.814534 303.64 
L 74.814534 10.8 
" clip-path="url(#p447ed9dc5e)" style="fill: none; stroke-dasharray: 1.85,0.8; stroke-dashoffset: 0; stroke: #b0b0b0; stroke-width: 0.5"/>
     </g>
     <g id="line2d_2">
      <defs>
       <path id="m9bdfe575ea" d="M 0 0 
L 0 3.5 
" style="stroke: #000000; stroke-width: 0.8"/>
      </defs>
      <g>
       <use xlink:href="#m9bdfe575ea" x="74.814534" y="303.64" style="stroke: #000000; stroke-width: 0.8"/>
      </g>
     </g>
     <g id="text_1">
      <!-- 0 -->
      <g transform="translate(71.633284 318.238437)scale(0.1 -0.1)">
       <defs>
        <path id="DejaVuSans-30" d="M 2034 4250 
Q 1547 4250 1301 3770 
Q 1056 3291 1056 2328 
Q 1056 1369 1301 889 
Q 1547 409 2034 409 
Q 2525 409 2770 889 
Q 3016 1369 3016 2328 
Q 3016 3291 2770 3770 
Q 2525 4250 2034 4250 
z
M 2034 4750 
Q 2819 4750 3233 4129 
Q 3647 3509 3647 2328 
Q 3647 1150 3233 529 
Q 2819 -91 2034 -91 
Q 1250 -91 836 529 
Q 422 1150 422 2328 
Q 422 3509 836 4129 
Q 1250 4750 2034 4750 
z
" transform="scale(0.015625)"/>
       </defs>
       <use xlink:href="#DejaVuSans-30"/>
      </g>
     </g>
    </g>
    <g id="xtick_2">
     <g id="line2d_3">
      <path d="M 146.278432 303.64 
L 146.278432 10.8 
" clip-path="url(#p447ed9dc5e)" style="fill: none; stroke-dasharray: 1.85,0.8; stroke-dashoffset: 0; stroke: #b0b0b0; stroke-width: 0.5"/>
     </g>
     <g id="line2d_4">
      <g>
       <use xlink:href="#m9bdfe575ea" x="146.278432" y="303.64" style="stroke: #000000; stroke-width: 0.8"/>
      </g>
     </g>
     <g id="text_2">
      <!-- 1 -->
      <g transform="translate(143.097182 318.238437)scale(0.1 -0.1)">
       <defs>
        <path id="DejaVuSans-31" d="M 794 531 
L 1825 531 
L 1825 4091 
L 703 3866 
L 703 4441 
L 1819 4666 
L 2450 4666 
L 2450 531 
L 3481 531 
L 3481 0 
L 794 0 
L 794 531 
z
" transform="scale(0.015625)"/>
       </defs>
       <use xlink:href="#DejaVuSans-31"/>
      </g>
     </g>
    </g>
    <g id="xtick_3">
     <g id="line2d_5">
      <path d="M 217.742331 303.64 
L 217.742331 10.8 
" clip-path="url(#p447ed9dc5e)" style="fill: none; stroke-dasharray: 1.85,0.8; stroke-dashoffset: 0; stroke: #b0b0b0; stroke-width: 0.5"/>
     </g>
     <g id="line2d_6">
      <g>
       <use xlink:href="#m9bdfe575ea" x="217.742331" y="303.64" style="stroke: #000000; stroke-width: 0.8"/>
      </g>
     </g>
     <g id="text_3">
      <!-- 2 -->
      <g transform="translate(214.561081 318.238437)scale(0.1 -0.1)">
       <defs>
        <path id="DejaVuSans-32" d="M 1228 531 
L 3431 531 
L 3431 0 
L 469 0 
L 469 531 
Q 828 903 1448 1529 
Q 2069 2156 2228 2338 
Q 2531 2678 2651 2914 
Q 2772 3150 2772 3378 
Q 2772 3750 2511 3984 
Q 2250 4219 1831 4219 
Q 1534 4219 1204 4116 
Q 875 4013 500 3803 
L 500 4441 
Q 881 4594 1212 4672 
Q 1544 4750 1819 4750 
Q 2544 4750 2975 4387 
Q 3406 4025 3406 3419 
Q 3406 3131 3298 2873 
Q 3191 2616 2906 2266 
Q 2828 2175 2409 1742 
Q 1991 1309 1228 531 
z
" transform="scale(0.015625)"/>
       </defs>
       <use xlink:href="#DejaVuSans-32"/>
      </g>
     </g>
    </g>
    <g id="xtick_4">
     <g id="line2d_7">
      <path d="M 289.206229 303.64 
L 289.206229 10.8 
" clip-path="url(#p447ed9dc5e)" style="fill: none; stroke-dasharray: 1.85,0.8; stroke-dashoffset: 0; stroke: #b0b0b0; stroke-width: 0.5"/>
     </g>
     <g id="line2d_8">
      <g>
       <use xlink:href="#m9bdfe575ea" x="289.206229" y="303.64" style="stroke: #000000; stroke-width: 0.8"/>
      </g>
     </g>
     <g id="text_4">
      <!-- 3 -->
      <g transform="translate(286.024979 318.238437)scale(0.1 -0.1)">
       <defs>
        <path id="DejaVuSans-33" d="M 2597 2516 
Q 3050 2419 3304 2112 
Q 3559 1806 3559 1356 
Q 3559 666 3084 287 
Q 2609 -91 1734 -91 
Q 1441 -91 1130 -33 
Q 819 25 488 141 
L 488 750 
Q 750 597 1062 519 
Q 1375 441 1716 441 
Q 2309 441 2620 675 
Q 2931 909 2931 1356 
Q 2931 1769 2642 2001 
Q 2353 2234 1838 2234 
L 1294 2234 
L 1294 2753 
L 1863 2753 
Q 2328 2753 2575 2939 
Q 2822 3125 2822 3475 
Q 2822 3834 2567 4026 
Q 2313 4219 1838 4219 
Q 1578 4219 1281 4162 
Q 984 4106 628 3988 
L 628 4550 
Q 988 4650 1302 4700 
Q 1616 4750 1894 4750 
Q 2613 4750 3031 4423 
Q 3450 4097 3450 3541 
Q 3450 3153 3228 2886 
Q 3006 2619 2597 2516 
z
" transform="scale(0.015625)"/>
       </defs>
       <use xlink:href="#DejaVuSans-33"/>
      </g>
     </g>
    </g>
    <g id="xtick_5">
     <g id="line2d_9">
      <path d="M 360.670127 303.64 
L 360.670127 10.8 
" clip-path="url(#p447ed9dc5e)" style="fill: none; stroke-dasharray: 1.85,0.8; stroke-dashoffset: 0; stroke: #b0b0b0; stroke-width: 0.5"/>
     </g>
     <g id="line2d_10">
      <g>
       <use xlink:href="#m9bdfe575ea" x="360.670127" y="303.64" style="stroke: #000000; stroke-width: 0.8"/>
      </g>
     </g>
     <g id="text_5">
      <!-- 4 -->
      <g transform="translate(357.488877 318.238437)scale(0.1 -0.1)">
       <defs>
        <path id="DejaVuSans-34" d="M 2419 4116 
L 825 1625 
L 2419 1625 
L 2419 4116 
z
M 2253 4666 
L 3047 4666 
L 3047 1625 
L 3713 1625 
L 3713 1100 
L 3047 1100 
L 3047 0 
L 2419 0 
L 2419 1100 
L 313 1100 
L 313 1709 
L 2253 4666 
z
" transform="scale(0.015625)"/>
       </defs>
       <use xlink:href="#DejaVuSans-34"/>
      </g>
     </g>
    </g>
    <g id="xtick_6">
     <g id="line2d_11">
      <path d="M 432.134025 303.64 
L 432.134025 10.8 
" clip-path="url(#p447ed9dc5e)" style="fill: none; stroke-dasharray: 1.85,0.8; stroke-dashoffset: 0; stroke: #b0b0b0; stroke-width: 0.5"/>
     </g>
     <g id="line2d_12">
      <g>
       <use xlink:href="#m9bdfe575ea" x="432.134025" y="303.64" style="stroke: #000000; stroke-width: 0.8"/>
      </g>
     </g>
     <g id="text_6">
      <!-- 5 -->
      <g transform="translate(428.952775 318.238437)scale(0.1 -0.1)">
       <defs>
        <path id="DejaVuSans-35" d="M 691 4666 
L 3169 4666 
L 3169 4134 
L 1269 4134 
L 1269 2991 
Q 1406 3038 1543 3061 
Q 1681 3084 1819 3084 
Q 2600 3084 3056 2656 
Q 3513 2228 3513 1497 
Q 3513 744 3044 326 
Q 2575 -91 1722 -91 
Q 1428 -91 1123 -41 
Q 819 9 494 109 
L 494 744 
Q 775 591 1075 516 
Q 1375 441 1709 441 
Q 2250 441 2565 725 
Q 2881 1009 2881 1497 
Q 2881 1984 2565 2268 
Q 2250 2553 1709 2553 
Q 1456 2553 1204 2497 
Q 953 2441 691 2322 
L 691 4666 
z
" transform="scale(0.015625)"/>
       </defs>
       <use xlink:href="#DejaVuSans-35"/>
      </g>
     </g>
    </g>
    <g id="text_7">
     <!-- Position [nm] -->
     <g transform="translate(219.28625 331.916562)scale(0.1 -0.1)">
      <defs>
       <path id="DejaVuSans-50" d="M 1259 4147 
L 1259 2394 
L 2053 2394 
Q 2494 2394 2734 2622 
Q 2975 2850 2975 3272 
Q 2975 3691 2734 3919 
Q 2494 4147 2053 4147 
L 1259 4147 
z
M 628 4666 
L 2053 4666 
Q 2838 4666 3239 4311 
Q 3641 3956 3641 3272 
Q 3641 2581 3239 2228 
Q 2838 1875 2053 1875 
L 1259 1875 
L 1259 0 
L 628 0 
L 628 4666 
z
" transform="scale(0.015625)"/>
       <path id="DejaVuSans-6f" d="M 1959 3097 
Q 1497 3097 1228 2736 
Q 959 2375 959 1747 
Q 959 1119 1226 758 
Q 1494 397 1959 397 
Q 2419 397 2687 759 
Q 2956 1122 2956 1747 
Q 2956 2369 2687 2733 
Q 2419 3097 1959 3097 
z
M 1959 3584 
Q 2709 3584 3137 3096 
Q 3566 2609 3566 1747 
Q 3566 888 3137 398 
Q 2709 -91 1959 -91 
Q 1206 -91 779 398 
Q 353 888 353 1747 
Q 353 2609 779 3096 
Q 1206 3584 1959 3584 
z
" transform="scale(0.015625)"/>
       <path id="DejaVuSans-73" d="M 2834 3397 
L 2834 2853 
Q 2591 2978 2328 3040 
Q 2066 3103 1784 3103 
Q 1356 3103 1142 2972 
Q 928 2841 928 2578 
Q 928 2378 1081 2264 
Q 1234 2150 1697 2047 
L 1894 2003 
Q 2506 1872 2764 1633 
Q 3022 1394 3022 966 
Q 3022 478 2636 193 
Q 2250 -91 1575 -91 
Q 1294 -91 989 -36 
Q 684 19 347 128 
L 347 722 
Q 666 556 975 473 
Q 1284 391 1588 391 
Q 1994 391 2212 530 
Q 2431 669 2431 922 
Q 2431 1156 2273 1281 
Q 2116 1406 1581 1522 
L 1381 1569 
Q 847 1681 609 1914 
Q 372 2147 372 2553 
Q 372 3047 722 3315 
Q 1072 3584 1716 3584 
Q 2034 3584 2315 3537 
Q 2597 3491 2834 3397 
z
" transform="scale(0.015625)"/>
       <path id="DejaVuSans-69" d="M 603 3500 
L 1178 3500 
L 1178 0 
L 603 0 
L 603 3500 
z
M 603 4863 
L 1178 4863 
L 1178 4134 
L 603 4134 
L 603 4863 
z
" transform="scale(0.015625)"/>
       <path id="DejaVuSans-74" d="M 1172 4494 
L 1172 3500 
L 2356 3500 
L 2356 3053 
L 1172 3053 
L 1172 1153 
Q 1172 725 1289 603 
Q 1406 481 1766 481 
L 2356 481 
L 2356 0 
L 1766 0 
Q 1100 0 847 248 
Q 594 497 594 1153 
L 594 3053 
L 172 3053 
L 172 3500 
L 594 3500 
L 594 4494 
L 1172 4494 
z
" transform="scale(0.015625)"/>
       <path id="DejaVuSans-6e" d="M 3513 2113 
L 3513 0 
L 2938 0 
L 2938 2094 
Q 2938 2591 2744 2837 
Q 2550 3084 2163 3084 
Q 1697 3084 1428 2787 
Q 1159 2491 1159 1978 
L 1159 0 
L 581 0 
L 581 3500 
L 1159 3500 
L 1159 2956 
Q 1366 3272 1645 3428 
Q 1925 3584 2291 3584 
Q 2894 3584 3203 3211 
Q 3513 2838 3513 2113 
z
" transform="scale(0.015625)"/>
       <path id="DejaVuSans-20" transform="scale(0.015625)"/>
       <path id="DejaVuSans-5b" d="M 550 4863 
L 1875 4863 
L 1875 4416 
L 1125 4416 
L 1125 -397 
L 1875 -397 
L 1875 -844 
L 550 -844 
L 550 4863 
z
" transform="scale(0.015625)"/>
       <path id="DejaVuSans-6d" d="M 3328 2828 
Q 3544 3216 3844 3400 
Q 4144 3584 4550 3584 
Q 5097 3584 5394 3201 
Q 5691 2819 5691 2113 
L 5691 0 
L 5113 0 
L 5113 2094 
Q 5113 2597 4934 2840 
Q 4756 3084 4391 3084 
Q 3944 3084 3684 2787 
Q 3425 2491 3425 1978 
L 3425 0 
L 2847 0 
L 2847 2094 
Q 2847 2600 2669 2842 
Q 2491 3084 2119 3084 
Q 1678 3084 1418 2786 
Q 1159 2488 1159 1978 
L 1159 0 
L 581 0 
L 581 3500 
L 1159 3500 
L 1159 2956 
Q 1356 3278 1631 3431 
Q 1906 3584 2284 3584 
Q 2666 3584 2933 3390 
Q 3200 3197 3328 2828 
z
" transform="scale(0.015625)"/>
       <path id="DejaVuSans-5d" d="M 1947 4863 
L 1947 -844 
L 622 -844 
L 622 -397 
L 1369 -397 
L 1369 4416 
L 622 4416 
L 622 4863 
L 1947 4863 
z
" transform="scale(0.015625)"/>
      </defs>
      <use xlink:href="#DejaVuSans-50"/>
      <use xlink:href="#DejaVuSans-6f" x="56.677734"/>
      <use xlink:href="#DejaVuSans-73" x="117.859375"/>
      <use xlink:href="#DejaVuSans-69" x="169.958984"/>
      <use xlink:href="#DejaVuSans-74" x="197.742188"/>
      <use xlink:href="#DejaVuSans-69" x="236.951172"/>
      <use xlink:href="#DejaVuSans-6f" x="264.734375"/>
      <use xlink:href="#DejaVuSans-6e" x="325.916016"/>
      <use xlink:href="#DejaVuSans-20" x="389.294922"/>
      <use xlink:href="#DejaVuSans-5b" x="421.082031"/>
      <use xlink:href="#DejaVuSans-6e" x="460.095703"/>
      <use xlink:href="#DejaVuSans-6d" x="523.474609"/>
      <use xlink:href="#DejaVuSans-5d" x="620.886719"/>
     </g>
    </g>
   </g>
   <g id="matplotlib.axis_2">
    <g id="ytick_1">
     <g id="line2d_13">
      <path d="M 54.56 271.28063 
L 450 271.28063 
" clip-path="url(#p447ed9dc5e)" style="fill: none; stroke-dasharray: 1.85,0.8; stroke-dashoffset: 0; stroke: #b0b0b0; stroke-width: 0.5"/>
     </g>
     <g id="line2d_14">
      <defs>
       <path id="meba083af81" d="M 0 0 
L -3.5 0 
" style="stroke: #000000; stroke-width: 0.8"/>
      </defs>
      <g>
       <use xlink:href="#meba083af81" x="54.56" y="271.28063" style="stroke: #000000; stroke-width: 0.8"/>
      </g>
     </g>
     <g id="text_8">
      <!-- 40 -->
      <g transform="translate(34.835 275.079849)scale(0.1 -0.1)">
       <use xlink:href="#DejaVuSans-34"/>
       <use xlink:href="#DejaVuSans-30" x="63.623047"/>
      </g>
     </g>
    </g>
    <g id="ytick_2">
     <g id="line2d_15">
      <path d="M 54.56 235.900108 
L 450 235.900108 
" clip-path="url(#p447ed9dc5e)" style="fill: none; stroke-dasharray: 1.85,0.8; stroke-dashoffset: 0; stroke: #b0b0b0; stroke-width: 0.5"/>
     </g>
     <g id="line2d_16">
      <g>
       <use xlink:href="#meba083af81" x="54.56" y="235.900108" style="stroke: #000000; stroke-width: 0.8"/>
      </g>
     </g>
     <g id="text_9">
      <!-- 60 -->
      <g transform="translate(34.835 239.699327)scale(0.1 -0.1)">
       <defs>
        <path id="DejaVuSans-36" d="M 2113 2584 
Q 1688 2584 1439 2293 
Q 1191 2003 1191 1497 
Q 1191 994 1439 701 
Q 1688 409 2113 409 
Q 2538 409 2786 701 
Q 3034 994 3034 1497 
Q 3034 2003 2786 2293 
Q 2538 2584 2113 2584 
z
M 3366 4563 
L 3366 3988 
Q 3128 4100 2886 4159 
Q 2644 4219 2406 4219 
Q 1781 4219 1451 3797 
Q 1122 3375 1075 2522 
Q 1259 2794 1537 2939 
Q 1816 3084 2150 3084 
Q 2853 3084 3261 2657 
Q 3669 2231 3669 1497 
Q 3669 778 3244 343 
Q 2819 -91 2113 -91 
Q 1303 -91 875 529 
Q 447 1150 447 2328 
Q 447 3434 972 4092 
Q 1497 4750 2381 4750 
Q 2619 4750 2861 4703 
Q 3103 4656 3366 4563 
z
" transform="scale(0.015625)"/>
       </defs>
       <use xlink:href="#DejaVuSans-36"/>
       <use xlink:href="#DejaVuSans-30" x="63.623047"/>
      </g>
     </g>
    </g>
    <g id="ytick_3">
     <g id="line2d_17">
      <path d="M 54.56 200.519586 
L 450 200.519586 
" clip-path="url(#p447ed9dc5e)" style="fill: none; stroke-dasharray: 1.85,0.8; stroke-dashoffset: 0; stroke: #b0b0b0; stroke-width: 0.5"/>
     </g>
     <g id="line2d_18">
      <g>
       <use xlink:href="#meba083af81" x="54.56" y="200.519586" style="stroke: #000000; stroke-width: 0.8"/>
      </g>
     </g>
     <g id="text_10">
      <!-- 80 -->
      <g transform="translate(34.835 204.318805)scale(0.1 -0.1)">
       <defs>
        <path id="DejaVuSans-38" d="M 2034 2216 
Q 1584 2216 1326 1975 
Q 1069 1734 1069 1313 
Q 1069 891 1326 650 
Q 1584 409 2034 409 
Q 2484 409 2743 651 
Q 3003 894 3003 1313 
Q 3003 1734 2745 1975 
Q 2488 2216 2034 2216 
z
M 1403 2484 
Q 997 2584 770 2862 
Q 544 3141 544 3541 
Q 544 4100 942 4425 
Q 1341 4750 2034 4750 
Q 2731 4750 3128 4425 
Q 3525 4100 3525 3541 
Q 3525 3141 3298 2862 
Q 3072 2584 2669 2484 
Q 3125 2378 3379 2068 
Q 3634 1759 3634 1313 
Q 3634 634 3220 271 
Q 2806 -91 2034 -91 
Q 1263 -91 848 271 
Q 434 634 434 1313 
Q 434 1759 690 2068 
Q 947 2378 1403 2484 
z
M 1172 3481 
Q 1172 3119 1398 2916 
Q 1625 2713 2034 2713 
Q 2441 2713 2670 2916 
Q 2900 3119 2900 3481 
Q 2900 3844 2670 4047 
Q 2441 4250 2034 4250 
Q 1625 4250 1398 4047 
Q 1172 3844 1172 3481 
z
" transform="scale(0.015625)"/>
       </defs>
       <use xlink:href="#DejaVuSans-38"/>
       <use xlink:href="#DejaVuSans-30" x="63.623047"/>
      </g>
     </g>
    </g>
    <g id="ytick_4">
     <g id="line2d_19">
      <path d="M 54.56 165.139064 
L 450 165.139064 
" clip-path="url(#p447ed9dc5e)" style="fill: none; stroke-dasharray: 1.85,0.8; stroke-dashoffset: 0; stroke: #b0b0b0; stroke-width: 0.5"/>
     </g>
     <g id="line2d_20">
      <g>
       <use xlink:href="#meba083af81" x="54.56" y="165.139064" style="stroke: #000000; stroke-width: 0.8"/>
      </g>
     </g>
     <g id="text_11">
      <!-- 100 -->
      <g transform="translate(28.4725 168.938282)scale(0.1 -0.1)">
       <use xlink:href="#DejaVuSans-31"/>
       <use xlink:href="#DejaVuSans-30" x="63.623047"/>
       <use xlink:href="#DejaVuSans-30" x="127.246094"/>
      </g>
     </g>
    </g>
    <g id="ytick_5">
     <g id="line2d_21">
      <path d="M 54.56 129.758541 
L 450 129.758541 
" clip-path="url(#p447ed9dc5e)" style="fill: none; stroke-dasharray: 1.85,0.8; stroke-dashoffset: 0; stroke: #b0b0b0; stroke-width: 0.5"/>
     </g>
     <g id="line2d_22">
      <g>
       <use xlink:href="#meba083af81" x="54.56" y="129.758541" style="stroke: #000000; stroke-width: 0.8"/>
      </g>
     </g>
     <g id="text_12">
      <!-- 120 -->
      <g transform="translate(28.4725 133.55776)scale(0.1 -0.1)">
       <use xlink:href="#DejaVuSans-31"/>
       <use xlink:href="#DejaVuSans-32" x="63.623047"/>
       <use xlink:href="#DejaVuSans-30" x="127.246094"/>
      </g>
     </g>
    </g>
    <g id="ytick_6">
     <g id="line2d_23">
      <path d="M 54.56 94.378019 
L 450 94.378019 
" clip-path="url(#p447ed9dc5e)" style="fill: none; stroke-dasharray: 1.85,0.8; stroke-dashoffset: 0; stroke: #b0b0b0; stroke-width: 0.5"/>
     </g>
     <g id="line2d_24">
      <g>
       <use xlink:href="#meba083af81" x="54.56" y="94.378019" style="stroke: #000000; stroke-width: 0.8"/>
      </g>
     </g>
     <g id="text_13">
      <!-- 140 -->
      <g transform="translate(28.4725 98.177238)scale(0.1 -0.1)">
       <use xlink:href="#DejaVuSans-31"/>
       <use xlink:href="#DejaVuSans-34" x="63.623047"/>
       <use xlink:href="#DejaVuSans-30" x="127.246094"/>
      </g>
     </g>
    </g>
    <g id="ytick_7">
     <g id="line2d_25">
      <path d="M 54.56 58.997497 
L 450 58.997497 
" clip-path="url(#p447ed9dc5e)" style="fill: none; stroke-dasharray: 1.85,0.8; stroke-dashoffset: 0; stroke: #b0b0b0; stroke-width: 0.5"/>
     </g>
     <g id="line2d_26">
      <g>
       <use xlink:href="#meba083af81" x="54.56" y="58.997497" style="stroke: #000000; stroke-width: 0.8"/>
      </g>
     </g>
     <g id="text_14">
      <!-- 160 -->
      <g transform="translate(28.4725 62.796716)scale(0.1 -0.1)">
       <use xlink:href="#DejaVuSans-31"/>
       <use xlink:href="#DejaVuSans-36" x="63.623047"/>
       <use xlink:href="#DejaVuSans-30" x="127.246094"/>
      </g>
     </g>
    </g>
    <g id="ytick_8">
     <g id="line2d_27">
      <path d="M 54.56 23.616975 
L 450 23.616975 
" clip-path="url(#p447ed9dc5e)" style="fill: none; stroke-dasharray: 1.85,0.8; stroke-dashoffset: 0; stroke: #b0b0b0; stroke-width: 0.5"/>
     </g>
     <g id="line2d_28">
      <g>
       <use xlink:href="#meba083af81" x="54.56" y="23.616975" style="stroke: #000000; stroke-width: 0.8"/>
      </g>
     </g>
     <g id="text_15">
      <!-- 180 -->
      <g transform="translate(28.4725 27.416193)scale(0.1 -0.1)">
       <use xlink:href="#DejaVuSans-31"/>
       <use xlink:href="#DejaVuSans-38" x="63.623047"/>
       <use xlink:href="#DejaVuSans-30" x="127.246094"/>
      </g>
     </g>
    </g>
    <g id="text_16">
     <!-- Intensité du courant électrique [$\mu$A] -->
     <g transform="translate(22.3725 246.67)rotate(-90)scale(0.1 -0.1)">
      <defs>
       <path id="DejaVuSans-49" d="M 628 4666 
L 1259 4666 
L 1259 0 
L 628 0 
L 628 4666 
z
" transform="scale(0.015625)"/>
       <path id="DejaVuSans-65" d="M 3597 1894 
L 3597 1613 
L 953 1613 
Q 991 1019 1311 708 
Q 1631 397 2203 397 
Q 2534 397 2845 478 
Q 3156 559 3463 722 
L 3463 178 
Q 3153 47 2828 -22 
Q 2503 -91 2169 -91 
Q 1331 -91 842 396 
Q 353 884 353 1716 
Q 353 2575 817 3079 
Q 1281 3584 2069 3584 
Q 2775 3584 3186 3129 
Q 3597 2675 3597 1894 
z
M 3022 2063 
Q 3016 2534 2758 2815 
Q 2500 3097 2075 3097 
Q 1594 3097 1305 2825 
Q 1016 2553 972 2059 
L 3022 2063 
z
" transform="scale(0.015625)"/>
       <path id="DejaVuSans-e9" d="M 3597 1894 
L 3597 1613 
L 953 1613 
Q 991 1019 1311 708 
Q 1631 397 2203 397 
Q 2534 397 2845 478 
Q 3156 559 3463 722 
L 3463 178 
Q 3153 47 2828 -22 
Q 2503 -91 2169 -91 
Q 1331 -91 842 396 
Q 353 884 353 1716 
Q 353 2575 817 3079 
Q 1281 3584 2069 3584 
Q 2775 3584 3186 3129 
Q 3597 2675 3597 1894 
z
M 3022 2063 
Q 3016 2534 2758 2815 
Q 2500 3097 2075 3097 
Q 1594 3097 1305 2825 
Q 1016 2553 972 2059 
L 3022 2063 
z
M 2466 5119 
L 3088 5119 
L 2070 3944 
L 1591 3944 
L 2466 5119 
z
" transform="scale(0.015625)"/>
       <path id="DejaVuSans-64" d="M 2906 2969 
L 2906 4863 
L 3481 4863 
L 3481 0 
L 2906 0 
L 2906 525 
Q 2725 213 2448 61 
Q 2172 -91 1784 -91 
Q 1150 -91 751 415 
Q 353 922 353 1747 
Q 353 2572 751 3078 
Q 1150 3584 1784 3584 
Q 2172 3584 2448 3432 
Q 2725 3281 2906 2969 
z
M 947 1747 
Q 947 1113 1208 752 
Q 1469 391 1925 391 
Q 2381 391 2643 752 
Q 2906 1113 2906 1747 
Q 2906 2381 2643 2742 
Q 2381 3103 1925 3103 
Q 1469 3103 1208 2742 
Q 947 2381 947 1747 
z
" transform="scale(0.015625)"/>
       <path id="DejaVuSans-75" d="M 544 1381 
L 544 3500 
L 1119 3500 
L 1119 1403 
Q 1119 906 1312 657 
Q 1506 409 1894 409 
Q 2359 409 2629 706 
Q 2900 1003 2900 1516 
L 2900 3500 
L 3475 3500 
L 3475 0 
L 2900 0 
L 2900 538 
Q 2691 219 2414 64 
Q 2138 -91 1772 -91 
Q 1169 -91 856 284 
Q 544 659 544 1381 
z
M 1991 3584 
L 1991 3584 
z
" transform="scale(0.015625)"/>
       <path id="DejaVuSans-63" d="M 3122 3366 
L 3122 2828 
Q 2878 2963 2633 3030 
Q 2388 3097 2138 3097 
Q 1578 3097 1268 2742 
Q 959 2388 959 1747 
Q 959 1106 1268 751 
Q 1578 397 2138 397 
Q 2388 397 2633 464 
Q 2878 531 3122 666 
L 3122 134 
Q 2881 22 2623 -34 
Q 2366 -91 2075 -91 
Q 1284 -91 818 406 
Q 353 903 353 1747 
Q 353 2603 823 3093 
Q 1294 3584 2113 3584 
Q 2378 3584 2631 3529 
Q 2884 3475 3122 3366 
z
" transform="scale(0.015625)"/>
       <path id="DejaVuSans-72" d="M 2631 2963 
Q 2534 3019 2420 3045 
Q 2306 3072 2169 3072 
Q 1681 3072 1420 2755 
Q 1159 2438 1159 1844 
L 1159 0 
L 581 0 
L 581 3500 
L 1159 3500 
L 1159 2956 
Q 1341 3275 1631 3429 
Q 1922 3584 2338 3584 
Q 2397 3584 2469 3576 
Q 2541 3569 2628 3553 
L 2631 2963 
z
" transform="scale(0.015625)"/>
       <path id="DejaVuSans-61" d="M 2194 1759 
Q 1497 1759 1228 1600 
Q 959 1441 959 1056 
Q 959 750 1161 570 
Q 1363 391 1709 391 
Q 2188 391 2477 730 
Q 2766 1069 2766 1631 
L 2766 1759 
L 2194 1759 
z
M 3341 1997 
L 3341 0 
L 2766 0 
L 2766 531 
Q 2569 213 2275 61 
Q 1981 -91 1556 -91 
Q 1019 -91 701 211 
Q 384 513 384 1019 
Q 384 1609 779 1909 
Q 1175 2209 1959 2209 
L 2766 2209 
L 2766 2266 
Q 2766 2663 2505 2880 
Q 2244 3097 1772 3097 
Q 1472 3097 1187 3025 
Q 903 2953 641 2809 
L 641 3341 
Q 956 3463 1253 3523 
Q 1550 3584 1831 3584 
Q 2591 3584 2966 3190 
Q 3341 2797 3341 1997 
z
" transform="scale(0.015625)"/>
       <path id="DejaVuSans-6c" d="M 603 4863 
L 1178 4863 
L 1178 0 
L 603 0 
L 603 4863 
z
" transform="scale(0.015625)"/>
       <path id="DejaVuSans-71" d="M 947 1747 
Q 947 1113 1208 752 
Q 1469 391 1925 391 
Q 2381 391 2643 752 
Q 2906 1113 2906 1747 
Q 2906 2381 2643 2742 
Q 2381 3103 1925 3103 
Q 1469 3103 1208 2742 
Q 947 2381 947 1747 
z
M 2906 525 
Q 2725 213 2448 61 
Q 2172 -91 1784 -91 
Q 1150 -91 751 415 
Q 353 922 353 1747 
Q 353 2572 751 3078 
Q 1150 3584 1784 3584 
Q 2172 3584 2448 3432 
Q 2725 3281 2906 2969 
L 2906 3500 
L 3481 3500 
L 3481 -1331 
L 2906 -1331 
L 2906 525 
z
" transform="scale(0.015625)"/>
       <path id="DejaVuSans-Oblique-3bc" d="M -84 -1331 
L 856 3500 
L 1434 3500 
L 1009 1322 
Q 997 1256 987 1175 
Q 978 1094 978 1013 
Q 978 722 1161 565 
Q 1344 409 1684 409 
Q 2147 409 2431 671 
Q 2716 934 2816 1459 
L 3213 3500 
L 3788 3500 
L 3266 809 
Q 3253 750 3248 706 
Q 3244 663 3244 628 
Q 3244 531 3283 486 
Q 3322 441 3406 441 
Q 3438 441 3492 456 
Q 3547 472 3647 513 
L 3559 50 
Q 3422 -19 3297 -55 
Q 3172 -91 3053 -91 
Q 2847 -91 2730 40 
Q 2613 172 2613 403 
Q 2438 153 2195 31 
Q 1953 -91 1625 -91 
Q 1334 -91 1117 43 
Q 900 178 831 397 
L 494 -1331 
L -84 -1331 
z
" transform="scale(0.015625)"/>
       <path id="DejaVuSans-41" d="M 2188 4044 
L 1331 1722 
L 3047 1722 
L 2188 4044 
z
M 1831 4666 
L 2547 4666 
L 4325 0 
L 3669 0 
L 3244 1197 
L 1141 1197 
L 716 0 
L 50 0 
L 1831 4666 
z
" transform="scale(0.015625)"/>
      </defs>
      <use xlink:href="#DejaVuSans-49" transform="translate(0 0.015625)"/>
      <use xlink:href="#DejaVuSans-6e" transform="translate(29.492188 0.015625)"/>
      <use xlink:href="#DejaVuSans-74" transform="translate(92.871094 0.015625)"/>
      <use xlink:href="#DejaVuSans-65" transform="translate(132.080078 0.015625)"/>
      <use xlink:href="#DejaVuSans-6e" transform="translate(193.603516 0.015625)"/>
      <use xlink:href="#DejaVuSans-73" transform="translate(256.982422 0.015625)"/>
      <use xlink:href="#DejaVuSans-69" transform="translate(309.082031 0.015625)"/>
      <use xlink:href="#DejaVuSans-74" transform="translate(336.865234 0.015625)"/>
      <use xlink:href="#DejaVuSans-e9" transform="translate(376.074219 0.015625)"/>
      <use xlink:href="#DejaVuSans-20" transform="translate(437.597656 0.015625)"/>
      <use xlink:href="#DejaVuSans-64" transform="translate(469.384766 0.015625)"/>
      <use xlink:href="#DejaVuSans-75" transform="translate(532.861328 0.015625)"/>
      <use xlink:href="#DejaVuSans-20" transform="translate(596.240234 0.015625)"/>
      <use xlink:href="#DejaVuSans-63" transform="translate(628.027344 0.015625)"/>
      <use xlink:href="#DejaVuSans-6f" transform="translate(683.007812 0.015625)"/>
      <use xlink:href="#DejaVuSans-75" transform="translate(744.189453 0.015625)"/>
      <use xlink:href="#DejaVuSans-72" transform="translate(807.568359 0.015625)"/>
      <use xlink:href="#DejaVuSans-61" transform="translate(848.681641 0.015625)"/>
      <use xlink:href="#DejaVuSans-6e" transform="translate(909.960938 0.015625)"/>
      <use xlink:href="#DejaVuSans-74" transform="translate(973.339844 0.015625)"/>
      <use xlink:href="#DejaVuSans-20" transform="translate(1012.548828 0.015625)"/>
      <use xlink:href="#DejaVuSans-e9" transform="translate(1044.335938 0.015625)"/>
      <use xlink:href="#DejaVuSans-6c" transform="translate(1105.859375 0.015625)"/>
      <use xlink:href="#DejaVuSans-65" transform="translate(1133.642578 0.015625)"/>
      <use xlink:href="#DejaVuSans-63" transform="translate(1195.166016 0.015625)"/>
      <use xlink:href="#DejaVuSans-74" transform="translate(1250.146484 0.015625)"/>
      <use xlink:href="#DejaVuSans-72" transform="translate(1289.355469 0.015625)"/>
      <use xlink:href="#DejaVuSans-69" transform="translate(1330.46875 0.015625)"/>
      <use xlink:href="#DejaVuSans-71" transform="translate(1358.251953 0.015625)"/>
      <use xlink:href="#DejaVuSans-75" transform="translate(1421.728516 0.015625)"/>
      <use xlink:href="#DejaVuSans-65" transform="translate(1485.107422 0.015625)"/>
      <use xlink:href="#DejaVuSans-20" transform="translate(1546.630859 0.015625)"/>
      <use xlink:href="#DejaVuSans-5b" transform="translate(1578.417969 0.015625)"/>
      <use xlink:href="#DejaVuSans-Oblique-3bc" transform="translate(1617.431641 0.015625)"/>
      <use xlink:href="#DejaVuSans-41" transform="translate(1681.054688 0.015625)"/>
      <use xlink:href="#DejaVuSans-5d" transform="translate(1749.462891 0.015625)"/>
     </g>
    </g>
   </g>
   <g id="line2d_29">
    <path d="M 74.814534 225.04392 
L 75.530605 251.666578 
L 76.246676 270.588367 
L 76.962747 282.990361 
L 77.678819 290.153046 
L 78.39489 292.999851 
L 79.110961 291.934396 
L 79.827032 286.803227 
L 80.543103 276.907734 
L 81.259174 261.094244 
L 81.975245 238.053324 
L 82.691316 207.018145 
L 84.83953 90.79334 
L 85.555601 66.967328 
L 86.271672 63.123395 
L 86.987743 80.439838 
L 87.703814 113.771376 
L 89.135957 194.247711 
L 89.852028 228.009329 
L 90.568099 253.84486 
L 91.28417 272.06893 
L 92.000241 283.90477 
L 92.716312 290.611748 
L 93.432383 293.066494 
L 94.148454 291.618673 
L 94.864526 286.060213 
L 95.580597 275.641893 
L 96.296668 259.1766 
L 97.012739 235.369258 
L 97.72881 203.562669 
L 99.877023 87.738777 
L 100.593095 65.637481 
L 101.309166 63.923603 
L 102.025237 83.123134 
L 102.741308 117.578436 
L 104.17345 197.874639 
L 104.889521 230.896969 
L 105.605592 255.949471 
L 106.321664 273.488241 
L 107.037735 284.770316 
L 107.753806 291.030091 
L 108.469877 293.09615 
L 109.185948 291.263958 
L 109.902019 285.270955 
L 110.61809 274.318182 
L 111.334161 257.188087 
L 112.050233 232.607019 
L 112.766304 200.039344 
L 114.914517 84.820265 
L 115.630588 64.508218 
L 116.346659 64.929708 
L 117.06273 85.955342 
L 117.778802 121.446556 
L 119.210944 201.437851 
L 119.927015 233.706535 
L 120.643086 257.981434 
L 121.359157 274.847607 
L 122.075228 285.588037 
L 122.791299 291.408641 
L 123.507371 293.08886 
L 124.223442 290.869767 
L 124.939513 284.43448 
L 125.655584 272.935313 
L 126.371655 255.127579 
L 127.087726 229.766615 
L 127.803797 196.450649 
L 129.952011 82.045897 
L 130.668082 63.583036 
L 131.384153 66.138586 
L 132.100224 88.92853 
L 133.532366 166.526943 
L 134.248437 204.934678 
L 134.964509 236.437913 
L 135.68058 259.941839 
L 136.396651 276.148325 
L 137.112722 286.358931 
L 137.828793 291.747912 
L 138.544864 293.044614 
L 139.260935 290.435565 
L 139.977006 283.549775 
L 140.693078 271.491984 
L 141.409149 252.994011 
L 142.12522 226.848234 
L 142.841291 192.799377 
L 144.273433 112.287567 
L 144.989504 79.423489 
L 145.705575 62.864812 
L 146.421647 67.546505 
L 147.137718 92.034508 
L 150.002002 239.091162 
L 150.718073 261.831834 
L 151.434144 277.391678 
L 152.150216 287.083951 
L 152.866287 292.048368 
L 153.582358 292.96335 
L 154.298429 289.960769 
L 155.0145 282.615786 
L 155.730571 269.986887 
L 156.446642 250.786387 
L 157.162713 223.85226 
L 157.878785 189.088638 
L 159.310927 108.580316 
L 160.026998 76.960539 
L 160.743069 62.355788 
L 161.45914 69.149143 
L 162.175211 95.264863 
L 165.039496 241.666506 
L 165.755567 263.652609 
L 166.471638 278.578931 
L 167.187709 287.764009 
L 167.90378 292.310422 
L 168.619851 292.844955 
L 169.335923 289.444742 
L 170.051994 281.631422 
L 170.768065 268.418711 
L 171.484136 248.503791 
L 172.200207 220.779282 
L 173.632349 144.716818 
L 174.34842 104.955221 
L 175.064492 74.664184 
L 175.780563 62.057558 
L 176.496634 70.941619 
L 177.212705 98.611011 
L 179.360918 215.004704 
L 180.076989 244.164315 
L 180.793061 265.405396 
L 181.509132 279.711328 
L 182.225203 288.399968 
L 182.941274 292.534437 
L 183.657345 292.689263 
L 184.373416 288.886802 
L 185.089487 280.595552 
L 185.805558 266.78615 
L 186.52163 246.145399 
L 187.237701 217.630114 
L 188.669843 140.659822 
L 189.385914 101.421157 
L 190.101985 72.54116 
L 190.818056 61.971058 
L 191.534127 72.918517 
L 192.250199 102.064231 
L 194.398412 218.215276 
L 195.114483 246.585098 
L 195.830554 267.091455 
L 196.546625 280.790084 
L 197.262696 288.992649 
L 197.978768 292.720721 
L 198.694839 292.496056 
L 199.41091 288.286217 
L 200.126981 279.507015 
L 200.843052 265.087908 
L 201.559123 243.710486 
L 202.275194 214.405804 
L 203.707337 136.61601 
L 204.423408 97.98698 
L 205.139479 70.597768 
L 205.85555 62.096559 
L 206.571621 75.073923 
L 207.287692 105.615712 
L 209.435906 221.350496 
L 210.151977 248.929485 
L 210.868048 268.71207 
L 211.584119 281.81639 
L 212.30019 289.542823 
L 213.016261 292.869536 
L 213.732332 292.265067 
L 214.448403 287.642205 
L 215.164475 278.364617 
L 215.880546 263.322704 
L 216.596617 241.198444 
L 217.312688 211.107649 
L 219.460901 94.661488 
L 220.176972 68.839833 
L 220.893044 62.433668 
L 221.609115 77.401452 
L 222.325186 109.256591 
L 224.473399 224.409358 
L 225.18947 251.19822 
L 225.905541 270.268541 
L 226.621613 282.791401 
L 227.337684 290.051213 
L 228.053755 292.981087 
L 228.769826 291.995975 
L 229.485897 286.95394 
L 230.201968 277.167134 
L 230.918039 261.489284 
L 231.63411 238.608789 
L 232.350182 207.737208 
L 234.498395 91.453379 
L 235.214466 67.272676 
L 235.930537 62.981326 
L 236.646608 79.894291 
L 237.362679 112.977995 
L 238.794822 193.475818 
L 239.510893 227.391092 
L 240.226964 253.392145 
L 240.943035 271.762173 
L 241.659106 283.71624 
L 242.375177 290.518494 
L 243.091248 293.055532 
L 243.80732 291.688409 
L 244.523391 286.220548 
L 245.239462 275.913321 
L 245.955533 259.586421 
L 246.671604 235.941175 
L 247.387675 204.296313 
L 249.535889 88.371211 
L 250.25196 65.901076 
L 250.968031 63.737821 
L 251.684102 82.545234 
L 252.400173 116.771078 
L 253.832315 197.115799 
L 254.548386 230.295147 
L 255.264458 255.512192 
L 255.980529 273.194279 
L 256.6966 284.591992 
L 257.412671 290.94529 
L 258.128742 293.092975 
L 258.844813 291.341947 
L 259.560884 285.441111 
L 260.276955 274.601908 
L 260.993027 257.612932 
L 261.709098 233.195409 
L 262.425169 200.787084 
L 264.573382 85.423357 
L 265.289453 64.729248 
L 266.005524 64.700791 
L 266.721596 85.346722 
L 267.437667 120.627059 
L 268.869809 200.692665 
L 269.58588 233.121176 
L 270.301951 257.559371 
L 271.018022 274.566164 
L 271.734093 285.419703 
L 272.450165 291.332179 
L 273.166236 293.093467 
L 273.882307 290.956114 
L 274.598378 284.614665 
L 275.314449 273.231609 
L 276.03052 255.567681 
L 276.746591 230.371462 
L 277.462662 197.211938 
L 279.610876 82.617964 
L 280.326947 63.760814 
L 281.043018 65.867243 
L 281.759089 88.290885 
L 283.191231 165.685095 
L 283.907303 204.203683 
L 284.623374 235.869026 
L 285.339445 259.534757 
L 286.055516 275.87913 
L 286.771587 286.200381 
L 287.487658 291.679684 
L 288.203729 293.057009 
L 288.9198 290.530388 
L 289.635872 283.740207 
L 290.351943 271.801125 
L 291.068014 253.449589 
L 291.784085 227.469483 
L 292.500156 193.573601 
L 294.648369 79.96291 
L 295.364441 62.998785 
L 296.080512 67.233572 
L 296.796583 91.369582 
L 299.660867 238.53872 
L 300.376938 261.439486 
L 301.09301 277.134462 
L 301.809081 286.934988 
L 302.525152 291.988281 
L 303.241223 292.983552 
L 303.957294 290.064194 
L 304.673365 282.81669 
L 305.389436 270.309149 
L 306.105507 251.257645 
L 306.821579 224.489812 
L 307.53765 189.875115 
L 308.969792 109.354746 
L 309.685863 77.465763 
L 310.401934 62.445536 
L 311.118005 68.795579 
L 311.834076 94.574445 
L 314.698361 241.130449 
L 315.414432 263.274742 
L 316.130503 278.333429 
L 316.846574 287.624443 
L 317.562645 292.258393 
L 318.278717 292.87299 
L 318.994788 289.556908 
L 319.710859 281.84303 
L 320.42693 268.75437 
L 321.143001 248.990915 
L 321.859072 221.432996 
L 323.291214 145.572433 
L 324.007286 105.711606 
L 324.723357 75.133739 
L 325.439428 62.102801 
L 326.155499 70.548496 
L 326.87157 97.896921 
L 329.019783 214.318874 
L 329.735855 243.644554 
L 330.451926 265.041747 
L 331.167997 279.477279 
L 331.884068 288.269623 
L 332.600139 292.490393 
L 333.31621 292.725171 
L 334.032281 289.007857 
L 334.748352 280.818106 
L 335.464424 267.135481 
L 336.180495 246.648553 
L 336.896566 218.299799 
L 338.328708 141.51362 
L 339.044779 102.157629 
L 339.76085 72.973662 
L 340.476921 61.971653 
L 341.192993 72.48702 
L 341.909064 101.328316 
L 344.057277 217.545169 
L 344.773348 246.081514 
L 345.489419 266.741757 
L 346.20549 280.567236 
L 346.921562 288.871356 
L 347.637633 292.684602 
L 348.353704 292.539888 
L 349.069775 288.416319 
L 349.785846 279.740762 
L 350.501917 265.451182 
L 351.217988 244.229815 
L 351.934059 215.091219 
L 353.366202 137.466397 
L 354.082273 98.701676 
L 354.798344 70.991928 
L 355.514415 62.052505 
L 356.230486 74.605337 
L 356.946557 104.859833 
L 359.094771 220.696354 
L 359.810842 248.441936 
L 360.526913 268.376051 
L 361.242984 281.604493 
L 361.959055 289.430422 
L 362.675126 292.841291 
L 363.391197 292.316883 
L 364.107269 287.781522 
L 364.82334 278.609811 
L 365.539411 263.700189 
L 366.255482 241.734065 
L 366.971553 211.808499 
L 369.119766 95.352561 
L 369.835838 69.194466 
L 370.551909 62.345102 
L 371.26798 76.89716 
L 371.984051 108.482617 
L 374.132264 223.771373 
L 374.848335 250.726541 
L 375.564407 269.945925 
L 376.280478 282.590215 
L 376.996549 289.947556 
L 377.71262 292.960678 
L 378.428691 292.055847 
L 379.144762 287.102651 
L 379.860833 277.424035 
L 380.576904 261.881242 
L 381.292976 239.160793 
L 382.009047 208.453143 
L 384.15726 92.119008 
L 384.873331 67.586704 
L 385.589402 62.848527 
L 386.305473 79.355761 
L 387.021545 112.187795 
L 388.453687 192.701258 
L 389.169758 226.769408 
L 389.885829 252.936151 
L 390.6019 271.452686 
L 391.317971 283.525532 
L 392.034042 290.423443 
L 392.750114 293.042929 
L 393.466185 291.75642 
L 394.182256 286.37884 
L 394.898327 276.182193 
L 395.614398 259.993108 
L 396.330469 236.509623 
L 397.04654 205.026923 
L 399.194754 89.009607 
L 399.910825 66.173538 
L 400.626896 63.561204 
L 401.342967 81.974016 
L 402.059038 115.966511 
L 403.49118 196.354156 
L 404.207252 229.689862 
L 404.923323 255.07168 
L 405.639394 272.897644 
L 406.355465 284.411536 
L 407.071536 290.858719 
L 407.787607 293.08816 
L 408.503678 291.418189 
L 409.219749 285.609181 
L 409.935821 274.88302 
L 410.651892 258.034593 
L 411.367963 233.780329 
L 412.084034 201.531898 
L 414.232247 86.032773 
L 414.948318 64.959305 
L 415.66439 64.480906 
L 416.380461 84.744435 
L 417.096532 119.809967 
L 418.528674 199.944556 
L 419.244745 232.532347 
L 419.960816 257.134121 
L 420.676887 274.282107 
L 421.392959 285.249283 
L 422.10903 291.253969 
L 422.825101 293.096434 
L 423.541172 291.040692 
L 424.257243 284.79272 
L 424.973314 273.525234 
L 425.689385 256.004551 
L 426.405456 230.972845 
L 427.121528 197.970423 
L 429.269741 83.196704 
L 429.985812 63.947754 
L 430.701883 65.604772 
L 431.417954 87.659211 
L 432.134025 123.70946 
L 432.134025 123.70946 
" clip-path="url(#p447ed9dc5e)" style="fill: none; stroke: #1f77b4; stroke-width: 1.5; stroke-linecap: square"/>
   </g>
   <g id="line2d_30">
    <path d="M 74.814534 201.701518 
L 291.068014 201.701119 
L 432.134025 201.702145 
L 432.134025 201.702145 
" clip-path="url(#p447ed9dc5e)" style="fill: none; stroke: #ff7f0e; stroke-width: 1.5; stroke-linecap: square"/>
   </g>
   <g id="patch_3">
    <path d="M 54.56 303.64 
L 54.56 10.8 
" style="fill: none; stroke: #000000; stroke-width: 0.8; stroke-linejoin: miter; stroke-linecap: square"/>
   </g>
   <g id="patch_4">
    <path d="M 450 303.64 
L 450 10.8 
" style="fill: none; stroke: #000000; stroke-width: 0.8; stroke-linejoin: miter; stroke-linecap: square"/>
   </g>
   <g id="patch_5">
    <path d="M 54.56 303.64 
L 450 303.64 
" style="fill: none; stroke: #000000; stroke-width: 0.8; stroke-linejoin: miter; stroke-linecap: square"/>
   </g>
   <g id="patch_6">
    <path d="M 54.56 10.8 
L 450 10.8 
" style="fill: none; stroke: #000000; stroke-width: 0.8; stroke-linejoin: miter; stroke-linecap: square"/>
   </g>
   <g id="legend_1">
    <g id="patch_7">
     <path d="M 337.164062 48.15625 
L 443 48.15625 
Q 445 48.15625 445 46.15625 
L 445 17.8 
Q 445 15.8 443 15.8 
L 337.164062 15.8 
Q 335.164062 15.8 335.164062 17.8 
L 335.164062 46.15625 
Q 335.164062 48.15625 337.164062 48.15625 
z
" style="fill: #ffffff; opacity: 0.8; stroke: #cccccc; stroke-linejoin: miter"/>
    </g>
    <g id="line2d_31">
     <path d="M 339.164062 23.898438 
L 349.164062 23.898438 
L 359.164062 23.898438 
" style="fill: none; stroke: #1f77b4; stroke-width: 1.5; stroke-linecap: square"/>
    </g>
    <g id="text_17">
     <!-- Pointe parfaite -->
     <g transform="translate(367.164062 27.398438)scale(0.1 -0.1)">
      <defs>
       <path id="DejaVuSans-70" d="M 1159 525 
L 1159 -1331 
L 581 -1331 
L 581 3500 
L 1159 3500 
L 1159 2969 
Q 1341 3281 1617 3432 
Q 1894 3584 2278 3584 
Q 2916 3584 3314 3078 
Q 3713 2572 3713 1747 
Q 3713 922 3314 415 
Q 2916 -91 2278 -91 
Q 1894 -91 1617 61 
Q 1341 213 1159 525 
z
M 3116 1747 
Q 3116 2381 2855 2742 
Q 2594 3103 2138 3103 
Q 1681 3103 1420 2742 
Q 1159 2381 1159 1747 
Q 1159 1113 1420 752 
Q 1681 391 2138 391 
Q 2594 391 2855 752 
Q 3116 1113 3116 1747 
z
" transform="scale(0.015625)"/>
       <path id="DejaVuSans-66" d="M 2375 4863 
L 2375 4384 
L 1825 4384 
Q 1516 4384 1395 4259 
Q 1275 4134 1275 3809 
L 1275 3500 
L 2222 3500 
L 2222 3053 
L 1275 3053 
L 1275 0 
L 697 0 
L 697 3053 
L 147 3053 
L 147 3500 
L 697 3500 
L 697 3744 
Q 697 4328 969 4595 
Q 1241 4863 1831 4863 
L 2375 4863 
z
" transform="scale(0.015625)"/>
      </defs>
      <use xlink:href="#DejaVuSans-50"/>
      <use xlink:href="#DejaVuSans-6f" x="56.677734"/>
      <use xlink:href="#DejaVuSans-69" x="117.859375"/>
      <use xlink:href="#DejaVuSans-6e" x="145.642578"/>
      <use xlink:href="#DejaVuSans-74" x="209.021484"/>
      <use xlink:href="#DejaVuSans-65" x="248.230469"/>
      <use xlink:href="#DejaVuSans-20" x="309.753906"/>
      <use xlink:href="#DejaVuSans-70" x="341.541016"/>
      <use xlink:href="#DejaVuSans-61" x="405.017578"/>
      <use xlink:href="#DejaVuSans-72" x="466.296875"/>
      <use xlink:href="#DejaVuSans-66" x="507.410156"/>
      <use xlink:href="#DejaVuSans-61" x="542.615234"/>
      <use xlink:href="#DejaVuSans-69" x="603.894531"/>
      <use xlink:href="#DejaVuSans-74" x="631.677734"/>
      <use xlink:href="#DejaVuSans-65" x="670.886719"/>
     </g>
    </g>
    <g id="line2d_32">
     <path d="M 339.164062 38.576563 
L 349.164062 38.576563 
L 359.164062 38.576563 
" style="fill: none; stroke: #ff7f0e; stroke-width: 1.5; stroke-linecap: square"/>
    </g>
    <g id="text_18">
     <!-- Profil circulaire -->
     <g transform="translate(367.164062 42.076563)scale(0.1 -0.1)">
      <use xlink:href="#DejaVuSans-50"/>
      <use xlink:href="#DejaVuSans-72" x="58.552734"/>
      <use xlink:href="#DejaVuSans-6f" x="97.416016"/>
      <use xlink:href="#DejaVuSans-66" x="158.597656"/>
      <use xlink:href="#DejaVuSans-69" x="193.802734"/>
      <use xlink:href="#DejaVuSans-6c" x="221.585938"/>
      <use xlink:href="#DejaVuSans-20" x="249.369141"/>
      <use xlink:href="#DejaVuSans-63" x="281.15625"/>
      <use xlink:href="#DejaVuSans-69" x="336.136719"/>
      <use xlink:href="#DejaVuSans-72" x="363.919922"/>
      <use xlink:href="#DejaVuSans-63" x="402.783203"/>
      <use xlink:href="#DejaVuSans-75" x="457.763672"/>
      <use xlink:href="#DejaVuSans-6c" x="521.142578"/>
      <use xlink:href="#DejaVuSans-61" x="548.925781"/>
      <use xlink:href="#DejaVuSans-69" x="610.205078"/>
      <use xlink:href="#DejaVuSans-72" x="637.988281"/>
      <use xlink:href="#DejaVuSans-65" x="676.851562"/>
     </g>
    </g>
   </g>
  </g>
 </g>
 <defs>
  <clipPath id="p447ed9dc5e">
   <rect x="54.56" y="10.8" width="395.44" height="292.84"/>
  </clipPath>
 </defs>
</svg>
