<?xml version="1.0" encoding="utf-8" standalone="no"?>
<!DOCTYPE svg PUBLIC "-//W3C//DTD SVG 1.1//EN"
  "http://www.w3.org/Graphics/SVG/1.1/DTD/svg11.dtd">
<svg xmlns:xlink="http://www.w3.org/1999/xlink" width="508.32pt" height="345.6pt" viewBox="0 0 508.32 345.6" xmlns="http://www.w3.org/2000/svg" version="1.1">
 <metadata>
  <rdf:RDF xmlns:dc="http://purl.org/dc/elements/1.1/" xmlns:cc="http://creativecommons.org/ns#" xmlns:rdf="http://www.w3.org/1999/02/22-rdf-syntax-ns#">
   <cc:Work>
    <dc:type rdf:resource="http://purl.org/dc/dcmitype/StillImage"/>
    <dc:date>2022-06-16T19:09:41.824040</dc:date>
    <dc:format>image/svg+xml</dc:format>
    <dc:creator>
     <cc:Agent>
      <dc:title>Matplotlib v3.5.2, https://matplotlib.org/</dc:title>
     </cc:Agent>
    </dc:creator>
   </cc:Work>
  </rdf:RDF>
 </metadata>
 <defs>
  <style type="text/css">*{stroke-linejoin: round; stroke-linecap: butt}</style>
 </defs>
 <g id="figure_1">
  <g id="patch_1">
   <path d="M 0 345.6 
L 508.32 345.6 
L 508.32 0 
L 0 0 
z
" style="fill: #ffffff"/>
  </g>
  <g id="axes_1">
   <g id="patch_2">
    <path d="M 54.39024 303.7824 
L 497.64528 303.7824 
L 497.64528 10.7136 
L 54.39024 10.7136 
z
" style="fill: #ffffff"/>
   </g>
   <g id="matplotlib.axis_1">
    <g id="xtick_1">
     <g id="line2d_1">
      <path d="M 75.854265 303.7824 
L 75.854265 10.7136 
" clip-path="url(#pf192ab2476)" style="fill: none; stroke-dasharray: 1.85,0.8; stroke-dashoffset: 0; stroke: #b0b0b0; stroke-width: 0.5"/>
     </g>
     <g id="line2d_2">
      <defs>
       <path id="m09a1324ed2" d="M 0 0 
L 0 3.5 
" style="stroke: #000000; stroke-width: 0.8"/>
      </defs>
      <g>
       <use xlink:href="#m09a1324ed2" x="75.854265" y="303.7824" style="stroke: #000000; stroke-width: 0.8"/>
      </g>
     </g>
     <g id="text_1">
      <!-- 0 -->
      <g transform="translate(72.673015 318.380837)scale(0.1 -0.1)">
       <defs>
        <path id="DejaVuSans-30" d="M 2034 4250 
Q 1547 4250 1301 3770 
Q 1056 3291 1056 2328 
Q 1056 1369 1301 889 
Q 1547 409 2034 409 
Q 2525 409 2770 889 
Q 3016 1369 3016 2328 
Q 3016 3291 2770 3770 
Q 2525 4250 2034 4250 
z
M 2034 4750 
Q 2819 4750 3233 4129 
Q 3647 3509 3647 2328 
Q 3647 1150 3233 529 
Q 2819 -91 2034 -91 
Q 1250 -91 836 529 
Q 422 1150 422 2328 
Q 422 3509 836 4129 
Q 1250 4750 2034 4750 
z
" transform="scale(0.015625)"/>
       </defs>
       <use xlink:href="#DejaVuSans-30"/>
      </g>
     </g>
    </g>
    <g id="xtick_2">
     <g id="line2d_3">
      <path d="M 156.195411 303.7824 
L 156.195411 10.7136 
" clip-path="url(#pf192ab2476)" style="fill: none; stroke-dasharray: 1.85,0.8; stroke-dashoffset: 0; stroke: #b0b0b0; stroke-width: 0.5"/>
     </g>
     <g id="line2d_4">
      <g>
       <use xlink:href="#m09a1324ed2" x="156.195411" y="303.7824" style="stroke: #000000; stroke-width: 0.8"/>
      </g>
     </g>
     <g id="text_2">
      <!-- 1 -->
      <g transform="translate(153.014161 318.380837)scale(0.1 -0.1)">
       <defs>
        <path id="DejaVuSans-31" d="M 794 531 
L 1825 531 
L 1825 4091 
L 703 3866 
L 703 4441 
L 1819 4666 
L 2450 4666 
L 2450 531 
L 3481 531 
L 3481 0 
L 794 0 
L 794 531 
z
" transform="scale(0.015625)"/>
       </defs>
       <use xlink:href="#DejaVuSans-31"/>
      </g>
     </g>
    </g>
    <g id="xtick_3">
     <g id="line2d_5">
      <path d="M 236.536557 303.7824 
L 236.536557 10.7136 
" clip-path="url(#pf192ab2476)" style="fill: none; stroke-dasharray: 1.85,0.8; stroke-dashoffset: 0; stroke: #b0b0b0; stroke-width: 0.5"/>
     </g>
     <g id="line2d_6">
      <g>
       <use xlink:href="#m09a1324ed2" x="236.536557" y="303.7824" style="stroke: #000000; stroke-width: 0.8"/>
      </g>
     </g>
     <g id="text_3">
      <!-- 2 -->
      <g transform="translate(233.355307 318.380837)scale(0.1 -0.1)">
       <defs>
        <path id="DejaVuSans-32" d="M 1228 531 
L 3431 531 
L 3431 0 
L 469 0 
L 469 531 
Q 828 903 1448 1529 
Q 2069 2156 2228 2338 
Q 2531 2678 2651 2914 
Q 2772 3150 2772 3378 
Q 2772 3750 2511 3984 
Q 2250 4219 1831 4219 
Q 1534 4219 1204 4116 
Q 875 4013 500 3803 
L 500 4441 
Q 881 4594 1212 4672 
Q 1544 4750 1819 4750 
Q 2544 4750 2975 4387 
Q 3406 4025 3406 3419 
Q 3406 3131 3298 2873 
Q 3191 2616 2906 2266 
Q 2828 2175 2409 1742 
Q 1991 1309 1228 531 
z
" transform="scale(0.015625)"/>
       </defs>
       <use xlink:href="#DejaVuSans-32"/>
      </g>
     </g>
    </g>
    <g id="xtick_4">
     <g id="line2d_7">
      <path d="M 316.877702 303.7824 
L 316.877702 10.7136 
" clip-path="url(#pf192ab2476)" style="fill: none; stroke-dasharray: 1.85,0.8; stroke-dashoffset: 0; stroke: #b0b0b0; stroke-width: 0.5"/>
     </g>
     <g id="line2d_8">
      <g>
       <use xlink:href="#m09a1324ed2" x="316.877702" y="303.7824" style="stroke: #000000; stroke-width: 0.8"/>
      </g>
     </g>
     <g id="text_4">
      <!-- 3 -->
      <g transform="translate(313.696452 318.380837)scale(0.1 -0.1)">
       <defs>
        <path id="DejaVuSans-33" d="M 2597 2516 
Q 3050 2419 3304 2112 
Q 3559 1806 3559 1356 
Q 3559 666 3084 287 
Q 2609 -91 1734 -91 
Q 1441 -91 1130 -33 
Q 819 25 488 141 
L 488 750 
Q 750 597 1062 519 
Q 1375 441 1716 441 
Q 2309 441 2620 675 
Q 2931 909 2931 1356 
Q 2931 1769 2642 2001 
Q 2353 2234 1838 2234 
L 1294 2234 
L 1294 2753 
L 1863 2753 
Q 2328 2753 2575 2939 
Q 2822 3125 2822 3475 
Q 2822 3834 2567 4026 
Q 2313 4219 1838 4219 
Q 1578 4219 1281 4162 
Q 984 4106 628 3988 
L 628 4550 
Q 988 4650 1302 4700 
Q 1616 4750 1894 4750 
Q 2613 4750 3031 4423 
Q 3450 4097 3450 3541 
Q 3450 3153 3228 2886 
Q 3006 2619 2597 2516 
z
" transform="scale(0.015625)"/>
       </defs>
       <use xlink:href="#DejaVuSans-33"/>
      </g>
     </g>
    </g>
    <g id="xtick_5">
     <g id="line2d_9">
      <path d="M 397.218848 303.7824 
L 397.218848 10.7136 
" clip-path="url(#pf192ab2476)" style="fill: none; stroke-dasharray: 1.85,0.8; stroke-dashoffset: 0; stroke: #b0b0b0; stroke-width: 0.5"/>
     </g>
     <g id="line2d_10">
      <g>
       <use xlink:href="#m09a1324ed2" x="397.218848" y="303.7824" style="stroke: #000000; stroke-width: 0.8"/>
      </g>
     </g>
     <g id="text_5">
      <!-- 4 -->
      <g transform="translate(394.037598 318.380837)scale(0.1 -0.1)">
       <defs>
        <path id="DejaVuSans-34" d="M 2419 4116 
L 825 1625 
L 2419 1625 
L 2419 4116 
z
M 2253 4666 
L 3047 4666 
L 3047 1625 
L 3713 1625 
L 3713 1100 
L 3047 1100 
L 3047 0 
L 2419 0 
L 2419 1100 
L 313 1100 
L 313 1709 
L 2253 4666 
z
" transform="scale(0.015625)"/>
       </defs>
       <use xlink:href="#DejaVuSans-34"/>
      </g>
     </g>
    </g>
    <g id="xtick_6">
     <g id="line2d_11">
      <path d="M 477.559994 303.7824 
L 477.559994 10.7136 
" clip-path="url(#pf192ab2476)" style="fill: none; stroke-dasharray: 1.85,0.8; stroke-dashoffset: 0; stroke: #b0b0b0; stroke-width: 0.5"/>
     </g>
     <g id="line2d_12">
      <g>
       <use xlink:href="#m09a1324ed2" x="477.559994" y="303.7824" style="stroke: #000000; stroke-width: 0.8"/>
      </g>
     </g>
     <g id="text_6">
      <!-- 5 -->
      <g transform="translate(474.378744 318.380837)scale(0.1 -0.1)">
       <defs>
        <path id="DejaVuSans-35" d="M 691 4666 
L 3169 4666 
L 3169 4134 
L 1269 4134 
L 1269 2991 
Q 1406 3038 1543 3061 
Q 1681 3084 1819 3084 
Q 2600 3084 3056 2656 
Q 3513 2228 3513 1497 
Q 3513 744 3044 326 
Q 2575 -91 1722 -91 
Q 1428 -91 1123 -41 
Q 819 9 494 109 
L 494 744 
Q 775 591 1075 516 
Q 1375 441 1709 441 
Q 2250 441 2565 725 
Q 2881 1009 2881 1497 
Q 2881 1984 2565 2268 
Q 2250 2553 1709 2553 
Q 1456 2553 1204 2497 
Q 953 2441 691 2322 
L 691 4666 
z
" transform="scale(0.015625)"/>
       </defs>
       <use xlink:href="#DejaVuSans-35"/>
      </g>
     </g>
    </g>
    <g id="text_7">
     <!-- Position [nm] -->
     <g transform="translate(243.02401 332.058962)scale(0.1 -0.1)">
      <defs>
       <path id="DejaVuSans-50" d="M 1259 4147 
L 1259 2394 
L 2053 2394 
Q 2494 2394 2734 2622 
Q 2975 2850 2975 3272 
Q 2975 3691 2734 3919 
Q 2494 4147 2053 4147 
L 1259 4147 
z
M 628 4666 
L 2053 4666 
Q 2838 4666 3239 4311 
Q 3641 3956 3641 3272 
Q 3641 2581 3239 2228 
Q 2838 1875 2053 1875 
L 1259 1875 
L 1259 0 
L 628 0 
L 628 4666 
z
" transform="scale(0.015625)"/>
       <path id="DejaVuSans-6f" d="M 1959 3097 
Q 1497 3097 1228 2736 
Q 959 2375 959 1747 
Q 959 1119 1226 758 
Q 1494 397 1959 397 
Q 2419 397 2687 759 
Q 2956 1122 2956 1747 
Q 2956 2369 2687 2733 
Q 2419 3097 1959 3097 
z
M 1959 3584 
Q 2709 3584 3137 3096 
Q 3566 2609 3566 1747 
Q 3566 888 3137 398 
Q 2709 -91 1959 -91 
Q 1206 -91 779 398 
Q 353 888 353 1747 
Q 353 2609 779 3096 
Q 1206 3584 1959 3584 
z
" transform="scale(0.015625)"/>
       <path id="DejaVuSans-73" d="M 2834 3397 
L 2834 2853 
Q 2591 2978 2328 3040 
Q 2066 3103 1784 3103 
Q 1356 3103 1142 2972 
Q 928 2841 928 2578 
Q 928 2378 1081 2264 
Q 1234 2150 1697 2047 
L 1894 2003 
Q 2506 1872 2764 1633 
Q 3022 1394 3022 966 
Q 3022 478 2636 193 
Q 2250 -91 1575 -91 
Q 1294 -91 989 -36 
Q 684 19 347 128 
L 347 722 
Q 666 556 975 473 
Q 1284 391 1588 391 
Q 1994 391 2212 530 
Q 2431 669 2431 922 
Q 2431 1156 2273 1281 
Q 2116 1406 1581 1522 
L 1381 1569 
Q 847 1681 609 1914 
Q 372 2147 372 2553 
Q 372 3047 722 3315 
Q 1072 3584 1716 3584 
Q 2034 3584 2315 3537 
Q 2597 3491 2834 3397 
z
" transform="scale(0.015625)"/>
       <path id="DejaVuSans-69" d="M 603 3500 
L 1178 3500 
L 1178 0 
L 603 0 
L 603 3500 
z
M 603 4863 
L 1178 4863 
L 1178 4134 
L 603 4134 
L 603 4863 
z
" transform="scale(0.015625)"/>
       <path id="DejaVuSans-74" d="M 1172 4494 
L 1172 3500 
L 2356 3500 
L 2356 3053 
L 1172 3053 
L 1172 1153 
Q 1172 725 1289 603 
Q 1406 481 1766 481 
L 2356 481 
L 2356 0 
L 1766 0 
Q 1100 0 847 248 
Q 594 497 594 1153 
L 594 3053 
L 172 3053 
L 172 3500 
L 594 3500 
L 594 4494 
L 1172 4494 
z
" transform="scale(0.015625)"/>
       <path id="DejaVuSans-6e" d="M 3513 2113 
L 3513 0 
L 2938 0 
L 2938 2094 
Q 2938 2591 2744 2837 
Q 2550 3084 2163 3084 
Q 1697 3084 1428 2787 
Q 1159 2491 1159 1978 
L 1159 0 
L 581 0 
L 581 3500 
L 1159 3500 
L 1159 2956 
Q 1366 3272 1645 3428 
Q 1925 3584 2291 3584 
Q 2894 3584 3203 3211 
Q 3513 2838 3513 2113 
z
" transform="scale(0.015625)"/>
       <path id="DejaVuSans-20" transform="scale(0.015625)"/>
       <path id="DejaVuSans-5b" d="M 550 4863 
L 1875 4863 
L 1875 4416 
L 1125 4416 
L 1125 -397 
L 1875 -397 
L 1875 -844 
L 550 -844 
L 550 4863 
z
" transform="scale(0.015625)"/>
       <path id="DejaVuSans-6d" d="M 3328 2828 
Q 3544 3216 3844 3400 
Q 4144 3584 4550 3584 
Q 5097 3584 5394 3201 
Q 5691 2819 5691 2113 
L 5691 0 
L 5113 0 
L 5113 2094 
Q 5113 2597 4934 2840 
Q 4756 3084 4391 3084 
Q 3944 3084 3684 2787 
Q 3425 2491 3425 1978 
L 3425 0 
L 2847 0 
L 2847 2094 
Q 2847 2600 2669 2842 
Q 2491 3084 2119 3084 
Q 1678 3084 1418 2786 
Q 1159 2488 1159 1978 
L 1159 0 
L 581 0 
L 581 3500 
L 1159 3500 
L 1159 2956 
Q 1356 3278 1631 3431 
Q 1906 3584 2284 3584 
Q 2666 3584 2933 3390 
Q 3200 3197 3328 2828 
z
" transform="scale(0.015625)"/>
       <path id="DejaVuSans-5d" d="M 1947 4863 
L 1947 -844 
L 622 -844 
L 622 -397 
L 1369 -397 
L 1369 4416 
L 622 4416 
L 622 4863 
L 1947 4863 
z
" transform="scale(0.015625)"/>
      </defs>
      <use xlink:href="#DejaVuSans-50"/>
      <use xlink:href="#DejaVuSans-6f" x="56.677734"/>
      <use xlink:href="#DejaVuSans-73" x="117.859375"/>
      <use xlink:href="#DejaVuSans-69" x="169.958984"/>
      <use xlink:href="#DejaVuSans-74" x="197.742188"/>
      <use xlink:href="#DejaVuSans-69" x="236.951172"/>
      <use xlink:href="#DejaVuSans-6f" x="264.734375"/>
      <use xlink:href="#DejaVuSans-6e" x="325.916016"/>
      <use xlink:href="#DejaVuSans-20" x="389.294922"/>
      <use xlink:href="#DejaVuSans-5b" x="421.082031"/>
      <use xlink:href="#DejaVuSans-6e" x="460.095703"/>
      <use xlink:href="#DejaVuSans-6d" x="523.474609"/>
      <use xlink:href="#DejaVuSans-5d" x="620.886719"/>
     </g>
    </g>
   </g>
   <g id="matplotlib.axis_2">
    <g id="ytick_1">
     <g id="line2d_13">
      <path d="M 54.39024 269.456156 
L 497.64528 269.456156 
" clip-path="url(#pf192ab2476)" style="fill: none; stroke-dasharray: 1.85,0.8; stroke-dashoffset: 0; stroke: #b0b0b0; stroke-width: 0.5"/>
     </g>
     <g id="line2d_14">
      <defs>
       <path id="m9b802d8ee8" d="M 0 0 
L -3.5 0 
" style="stroke: #000000; stroke-width: 0.8"/>
      </defs>
      <g>
       <use xlink:href="#m9b802d8ee8" x="54.39024" y="269.456156" style="stroke: #000000; stroke-width: 0.8"/>
      </g>
     </g>
     <g id="text_8">
      <!-- 40 -->
      <g transform="translate(34.66524 273.255375)scale(0.1 -0.1)">
       <use xlink:href="#DejaVuSans-34"/>
       <use xlink:href="#DejaVuSans-30" x="63.623047"/>
      </g>
     </g>
    </g>
    <g id="ytick_2">
     <g id="line2d_15">
      <path d="M 54.39024 233.063824 
L 497.64528 233.063824 
" clip-path="url(#pf192ab2476)" style="fill: none; stroke-dasharray: 1.85,0.8; stroke-dashoffset: 0; stroke: #b0b0b0; stroke-width: 0.5"/>
     </g>
     <g id="line2d_16">
      <g>
       <use xlink:href="#m9b802d8ee8" x="54.39024" y="233.063824" style="stroke: #000000; stroke-width: 0.8"/>
      </g>
     </g>
     <g id="text_9">
      <!-- 60 -->
      <g transform="translate(34.66524 236.863043)scale(0.1 -0.1)">
       <defs>
        <path id="DejaVuSans-36" d="M 2113 2584 
Q 1688 2584 1439 2293 
Q 1191 2003 1191 1497 
Q 1191 994 1439 701 
Q 1688 409 2113 409 
Q 2538 409 2786 701 
Q 3034 994 3034 1497 
Q 3034 2003 2786 2293 
Q 2538 2584 2113 2584 
z
M 3366 4563 
L 3366 3988 
Q 3128 4100 2886 4159 
Q 2644 4219 2406 4219 
Q 1781 4219 1451 3797 
Q 1122 3375 1075 2522 
Q 1259 2794 1537 2939 
Q 1816 3084 2150 3084 
Q 2853 3084 3261 2657 
Q 3669 2231 3669 1497 
Q 3669 778 3244 343 
Q 2819 -91 2113 -91 
Q 1303 -91 875 529 
Q 447 1150 447 2328 
Q 447 3434 972 4092 
Q 1497 4750 2381 4750 
Q 2619 4750 2861 4703 
Q 3103 4656 3366 4563 
z
" transform="scale(0.015625)"/>
       </defs>
       <use xlink:href="#DejaVuSans-36"/>
       <use xlink:href="#DejaVuSans-30" x="63.623047"/>
      </g>
     </g>
    </g>
    <g id="ytick_3">
     <g id="line2d_17">
      <path d="M 54.39024 196.671492 
L 497.64528 196.671492 
" clip-path="url(#pf192ab2476)" style="fill: none; stroke-dasharray: 1.85,0.8; stroke-dashoffset: 0; stroke: #b0b0b0; stroke-width: 0.5"/>
     </g>
     <g id="line2d_18">
      <g>
       <use xlink:href="#m9b802d8ee8" x="54.39024" y="196.671492" style="stroke: #000000; stroke-width: 0.8"/>
      </g>
     </g>
     <g id="text_10">
      <!-- 80 -->
      <g transform="translate(34.66524 200.47071)scale(0.1 -0.1)">
       <defs>
        <path id="DejaVuSans-38" d="M 2034 2216 
Q 1584 2216 1326 1975 
Q 1069 1734 1069 1313 
Q 1069 891 1326 650 
Q 1584 409 2034 409 
Q 2484 409 2743 651 
Q 3003 894 3003 1313 
Q 3003 1734 2745 1975 
Q 2488 2216 2034 2216 
z
M 1403 2484 
Q 997 2584 770 2862 
Q 544 3141 544 3541 
Q 544 4100 942 4425 
Q 1341 4750 2034 4750 
Q 2731 4750 3128 4425 
Q 3525 4100 3525 3541 
Q 3525 3141 3298 2862 
Q 3072 2584 2669 2484 
Q 3125 2378 3379 2068 
Q 3634 1759 3634 1313 
Q 3634 634 3220 271 
Q 2806 -91 2034 -91 
Q 1263 -91 848 271 
Q 434 634 434 1313 
Q 434 1759 690 2068 
Q 947 2378 1403 2484 
z
M 1172 3481 
Q 1172 3119 1398 2916 
Q 1625 2713 2034 2713 
Q 2441 2713 2670 2916 
Q 2900 3119 2900 3481 
Q 2900 3844 2670 4047 
Q 2441 4250 2034 4250 
Q 1625 4250 1398 4047 
Q 1172 3844 1172 3481 
z
" transform="scale(0.015625)"/>
       </defs>
       <use xlink:href="#DejaVuSans-38"/>
       <use xlink:href="#DejaVuSans-30" x="63.623047"/>
      </g>
     </g>
    </g>
    <g id="ytick_4">
     <g id="line2d_19">
      <path d="M 54.39024 160.279159 
L 497.64528 160.279159 
" clip-path="url(#pf192ab2476)" style="fill: none; stroke-dasharray: 1.85,0.8; stroke-dashoffset: 0; stroke: #b0b0b0; stroke-width: 0.5"/>
     </g>
     <g id="line2d_20">
      <g>
       <use xlink:href="#m9b802d8ee8" x="54.39024" y="160.279159" style="stroke: #000000; stroke-width: 0.8"/>
      </g>
     </g>
     <g id="text_11">
      <!-- 100 -->
      <g transform="translate(28.30274 164.078378)scale(0.1 -0.1)">
       <use xlink:href="#DejaVuSans-31"/>
       <use xlink:href="#DejaVuSans-30" x="63.623047"/>
       <use xlink:href="#DejaVuSans-30" x="127.246094"/>
      </g>
     </g>
    </g>
    <g id="ytick_5">
     <g id="line2d_21">
      <path d="M 54.39024 123.886827 
L 497.64528 123.886827 
" clip-path="url(#pf192ab2476)" style="fill: none; stroke-dasharray: 1.85,0.8; stroke-dashoffset: 0; stroke: #b0b0b0; stroke-width: 0.5"/>
     </g>
     <g id="line2d_22">
      <g>
       <use xlink:href="#m9b802d8ee8" x="54.39024" y="123.886827" style="stroke: #000000; stroke-width: 0.8"/>
      </g>
     </g>
     <g id="text_12">
      <!-- 120 -->
      <g transform="translate(28.30274 127.686046)scale(0.1 -0.1)">
       <use xlink:href="#DejaVuSans-31"/>
       <use xlink:href="#DejaVuSans-32" x="63.623047"/>
       <use xlink:href="#DejaVuSans-30" x="127.246094"/>
      </g>
     </g>
    </g>
    <g id="ytick_6">
     <g id="line2d_23">
      <path d="M 54.39024 87.494495 
L 497.64528 87.494495 
" clip-path="url(#pf192ab2476)" style="fill: none; stroke-dasharray: 1.85,0.8; stroke-dashoffset: 0; stroke: #b0b0b0; stroke-width: 0.5"/>
     </g>
     <g id="line2d_24">
      <g>
       <use xlink:href="#m9b802d8ee8" x="54.39024" y="87.494495" style="stroke: #000000; stroke-width: 0.8"/>
      </g>
     </g>
     <g id="text_13">
      <!-- 140 -->
      <g transform="translate(28.30274 91.293713)scale(0.1 -0.1)">
       <use xlink:href="#DejaVuSans-31"/>
       <use xlink:href="#DejaVuSans-34" x="63.623047"/>
       <use xlink:href="#DejaVuSans-30" x="127.246094"/>
      </g>
     </g>
    </g>
    <g id="ytick_7">
     <g id="line2d_25">
      <path d="M 54.39024 51.102162 
L 497.64528 51.102162 
" clip-path="url(#pf192ab2476)" style="fill: none; stroke-dasharray: 1.85,0.8; stroke-dashoffset: 0; stroke: #b0b0b0; stroke-width: 0.5"/>
     </g>
     <g id="line2d_26">
      <g>
       <use xlink:href="#m9b802d8ee8" x="54.39024" y="51.102162" style="stroke: #000000; stroke-width: 0.8"/>
      </g>
     </g>
     <g id="text_14">
      <!-- 160 -->
      <g transform="translate(28.30274 54.901381)scale(0.1 -0.1)">
       <use xlink:href="#DejaVuSans-31"/>
       <use xlink:href="#DejaVuSans-36" x="63.623047"/>
       <use xlink:href="#DejaVuSans-30" x="127.246094"/>
      </g>
     </g>
    </g>
    <g id="ytick_8">
     <g id="line2d_27">
      <path d="M 54.39024 14.70983 
L 497.64528 14.70983 
" clip-path="url(#pf192ab2476)" style="fill: none; stroke-dasharray: 1.85,0.8; stroke-dashoffset: 0; stroke: #b0b0b0; stroke-width: 0.5"/>
     </g>
     <g id="line2d_28">
      <g>
       <use xlink:href="#m9b802d8ee8" x="54.39024" y="14.70983" style="stroke: #000000; stroke-width: 0.8"/>
      </g>
     </g>
     <g id="text_15">
      <!-- 180 -->
      <g transform="translate(28.30274 18.509049)scale(0.1 -0.1)">
       <use xlink:href="#DejaVuSans-31"/>
       <use xlink:href="#DejaVuSans-38" x="63.623047"/>
       <use xlink:href="#DejaVuSans-30" x="127.246094"/>
      </g>
     </g>
    </g>
    <g id="text_16">
     <!-- Intensité du courant électrique [$\mu$A] -->
     <g transform="translate(22.20274 246.698)rotate(-90)scale(0.1 -0.1)">
      <defs>
       <path id="DejaVuSans-49" d="M 628 4666 
L 1259 4666 
L 1259 0 
L 628 0 
L 628 4666 
z
" transform="scale(0.015625)"/>
       <path id="DejaVuSans-65" d="M 3597 1894 
L 3597 1613 
L 953 1613 
Q 991 1019 1311 708 
Q 1631 397 2203 397 
Q 2534 397 2845 478 
Q 3156 559 3463 722 
L 3463 178 
Q 3153 47 2828 -22 
Q 2503 -91 2169 -91 
Q 1331 -91 842 396 
Q 353 884 353 1716 
Q 353 2575 817 3079 
Q 1281 3584 2069 3584 
Q 2775 3584 3186 3129 
Q 3597 2675 3597 1894 
z
M 3022 2063 
Q 3016 2534 2758 2815 
Q 2500 3097 2075 3097 
Q 1594 3097 1305 2825 
Q 1016 2553 972 2059 
L 3022 2063 
z
" transform="scale(0.015625)"/>
       <path id="DejaVuSans-e9" d="M 3597 1894 
L 3597 1613 
L 953 1613 
Q 991 1019 1311 708 
Q 1631 397 2203 397 
Q 2534 397 2845 478 
Q 3156 559 3463 722 
L 3463 178 
Q 3153 47 2828 -22 
Q 2503 -91 2169 -91 
Q 1331 -91 842 396 
Q 353 884 353 1716 
Q 353 2575 817 3079 
Q 1281 3584 2069 3584 
Q 2775 3584 3186 3129 
Q 3597 2675 3597 1894 
z
M 3022 2063 
Q 3016 2534 2758 2815 
Q 2500 3097 2075 3097 
Q 1594 3097 1305 2825 
Q 1016 2553 972 2059 
L 3022 2063 
z
M 2466 5119 
L 3088 5119 
L 2070 3944 
L 1591 3944 
L 2466 5119 
z
" transform="scale(0.015625)"/>
       <path id="DejaVuSans-64" d="M 2906 2969 
L 2906 4863 
L 3481 4863 
L 3481 0 
L 2906 0 
L 2906 525 
Q 2725 213 2448 61 
Q 2172 -91 1784 -91 
Q 1150 -91 751 415 
Q 353 922 353 1747 
Q 353 2572 751 3078 
Q 1150 3584 1784 3584 
Q 2172 3584 2448 3432 
Q 2725 3281 2906 2969 
z
M 947 1747 
Q 947 1113 1208 752 
Q 1469 391 1925 391 
Q 2381 391 2643 752 
Q 2906 1113 2906 1747 
Q 2906 2381 2643 2742 
Q 2381 3103 1925 3103 
Q 1469 3103 1208 2742 
Q 947 2381 947 1747 
z
" transform="scale(0.015625)"/>
       <path id="DejaVuSans-75" d="M 544 1381 
L 544 3500 
L 1119 3500 
L 1119 1403 
Q 1119 906 1312 657 
Q 1506 409 1894 409 
Q 2359 409 2629 706 
Q 2900 1003 2900 1516 
L 2900 3500 
L 3475 3500 
L 3475 0 
L 2900 0 
L 2900 538 
Q 2691 219 2414 64 
Q 2138 -91 1772 -91 
Q 1169 -91 856 284 
Q 544 659 544 1381 
z
M 1991 3584 
L 1991 3584 
z
" transform="scale(0.015625)"/>
       <path id="DejaVuSans-63" d="M 3122 3366 
L 3122 2828 
Q 2878 2963 2633 3030 
Q 2388 3097 2138 3097 
Q 1578 3097 1268 2742 
Q 959 2388 959 1747 
Q 959 1106 1268 751 
Q 1578 397 2138 397 
Q 2388 397 2633 464 
Q 2878 531 3122 666 
L 3122 134 
Q 2881 22 2623 -34 
Q 2366 -91 2075 -91 
Q 1284 -91 818 406 
Q 353 903 353 1747 
Q 353 2603 823 3093 
Q 1294 3584 2113 3584 
Q 2378 3584 2631 3529 
Q 2884 3475 3122 3366 
z
" transform="scale(0.015625)"/>
       <path id="DejaVuSans-72" d="M 2631 2963 
Q 2534 3019 2420 3045 
Q 2306 3072 2169 3072 
Q 1681 3072 1420 2755 
Q 1159 2438 1159 1844 
L 1159 0 
L 581 0 
L 581 3500 
L 1159 3500 
L 1159 2956 
Q 1341 3275 1631 3429 
Q 1922 3584 2338 3584 
Q 2397 3584 2469 3576 
Q 2541 3569 2628 3553 
L 2631 2963 
z
" transform="scale(0.015625)"/>
       <path id="DejaVuSans-61" d="M 2194 1759 
Q 1497 1759 1228 1600 
Q 959 1441 959 1056 
Q 959 750 1161 570 
Q 1363 391 1709 391 
Q 2188 391 2477 730 
Q 2766 1069 2766 1631 
L 2766 1759 
L 2194 1759 
z
M 3341 1997 
L 3341 0 
L 2766 0 
L 2766 531 
Q 2569 213 2275 61 
Q 1981 -91 1556 -91 
Q 1019 -91 701 211 
Q 384 513 384 1019 
Q 384 1609 779 1909 
Q 1175 2209 1959 2209 
L 2766 2209 
L 2766 2266 
Q 2766 2663 2505 2880 
Q 2244 3097 1772 3097 
Q 1472 3097 1187 3025 
Q 903 2953 641 2809 
L 641 3341 
Q 956 3463 1253 3523 
Q 1550 3584 1831 3584 
Q 2591 3584 2966 3190 
Q 3341 2797 3341 1997 
z
" transform="scale(0.015625)"/>
       <path id="DejaVuSans-6c" d="M 603 4863 
L 1178 4863 
L 1178 0 
L 603 0 
L 603 4863 
z
" transform="scale(0.015625)"/>
       <path id="DejaVuSans-71" d="M 947 1747 
Q 947 1113 1208 752 
Q 1469 391 1925 391 
Q 2381 391 2643 752 
Q 2906 1113 2906 1747 
Q 2906 2381 2643 2742 
Q 2381 3103 1925 3103 
Q 1469 3103 1208 2742 
Q 947 2381 947 1747 
z
M 2906 525 
Q 2725 213 2448 61 
Q 2172 -91 1784 -91 
Q 1150 -91 751 415 
Q 353 922 353 1747 
Q 353 2572 751 3078 
Q 1150 3584 1784 3584 
Q 2172 3584 2448 3432 
Q 2725 3281 2906 2969 
L 2906 3500 
L 3481 3500 
L 3481 -1331 
L 2906 -1331 
L 2906 525 
z
" transform="scale(0.015625)"/>
       <path id="DejaVuSans-Oblique-3bc" d="M -84 -1331 
L 856 3500 
L 1434 3500 
L 1009 1322 
Q 997 1256 987 1175 
Q 978 1094 978 1013 
Q 978 722 1161 565 
Q 1344 409 1684 409 
Q 2147 409 2431 671 
Q 2716 934 2816 1459 
L 3213 3500 
L 3788 3500 
L 3266 809 
Q 3253 750 3248 706 
Q 3244 663 3244 628 
Q 3244 531 3283 486 
Q 3322 441 3406 441 
Q 3438 441 3492 456 
Q 3547 472 3647 513 
L 3559 50 
Q 3422 -19 3297 -55 
Q 3172 -91 3053 -91 
Q 2847 -91 2730 40 
Q 2613 172 2613 403 
Q 2438 153 2195 31 
Q 1953 -91 1625 -91 
Q 1334 -91 1117 43 
Q 900 178 831 397 
L 494 -1331 
L -84 -1331 
z
" transform="scale(0.015625)"/>
       <path id="DejaVuSans-41" d="M 2188 4044 
L 1331 1722 
L 3047 1722 
L 2188 4044 
z
M 1831 4666 
L 2547 4666 
L 4325 0 
L 3669 0 
L 3244 1197 
L 1141 1197 
L 716 0 
L 50 0 
L 1831 4666 
z
" transform="scale(0.015625)"/>
      </defs>
      <use xlink:href="#DejaVuSans-49" transform="translate(0 0.015625)"/>
      <use xlink:href="#DejaVuSans-6e" transform="translate(29.492188 0.015625)"/>
      <use xlink:href="#DejaVuSans-74" transform="translate(92.871094 0.015625)"/>
      <use xlink:href="#DejaVuSans-65" transform="translate(132.080078 0.015625)"/>
      <use xlink:href="#DejaVuSans-6e" transform="translate(193.603516 0.015625)"/>
      <use xlink:href="#DejaVuSans-73" transform="translate(256.982422 0.015625)"/>
      <use xlink:href="#DejaVuSans-69" transform="translate(309.082031 0.015625)"/>
      <use xlink:href="#DejaVuSans-74" transform="translate(336.865234 0.015625)"/>
      <use xlink:href="#DejaVuSans-e9" transform="translate(376.074219 0.015625)"/>
      <use xlink:href="#DejaVuSans-20" transform="translate(437.597656 0.015625)"/>
      <use xlink:href="#DejaVuSans-64" transform="translate(469.384766 0.015625)"/>
      <use xlink:href="#DejaVuSans-75" transform="translate(532.861328 0.015625)"/>
      <use xlink:href="#DejaVuSans-20" transform="translate(596.240234 0.015625)"/>
      <use xlink:href="#DejaVuSans-63" transform="translate(628.027344 0.015625)"/>
      <use xlink:href="#DejaVuSans-6f" transform="translate(683.007812 0.015625)"/>
      <use xlink:href="#DejaVuSans-75" transform="translate(744.189453 0.015625)"/>
      <use xlink:href="#DejaVuSans-72" transform="translate(807.568359 0.015625)"/>
      <use xlink:href="#DejaVuSans-61" transform="translate(848.681641 0.015625)"/>
      <use xlink:href="#DejaVuSans-6e" transform="translate(909.960938 0.015625)"/>
      <use xlink:href="#DejaVuSans-74" transform="translate(973.339844 0.015625)"/>
      <use xlink:href="#DejaVuSans-20" transform="translate(1012.548828 0.015625)"/>
      <use xlink:href="#DejaVuSans-e9" transform="translate(1044.335938 0.015625)"/>
      <use xlink:href="#DejaVuSans-6c" transform="translate(1105.859375 0.015625)"/>
      <use xlink:href="#DejaVuSans-65" transform="translate(1133.642578 0.015625)"/>
      <use xlink:href="#DejaVuSans-63" transform="translate(1195.166016 0.015625)"/>
      <use xlink:href="#DejaVuSans-74" transform="translate(1250.146484 0.015625)"/>
      <use xlink:href="#DejaVuSans-72" transform="translate(1289.355469 0.015625)"/>
      <use xlink:href="#DejaVuSans-69" transform="translate(1330.46875 0.015625)"/>
      <use xlink:href="#DejaVuSans-71" transform="translate(1358.251953 0.015625)"/>
      <use xlink:href="#DejaVuSans-75" transform="translate(1421.728516 0.015625)"/>
      <use xlink:href="#DejaVuSans-65" transform="translate(1485.107422 0.015625)"/>
      <use xlink:href="#DejaVuSans-20" transform="translate(1546.630859 0.015625)"/>
      <use xlink:href="#DejaVuSans-5b" transform="translate(1578.417969 0.015625)"/>
      <use xlink:href="#DejaVuSans-Oblique-3bc" transform="translate(1617.431641 0.015625)"/>
      <use xlink:href="#DejaVuSans-41" transform="translate(1681.054688 0.015625)"/>
      <use xlink:href="#DejaVuSans-5d" transform="translate(1749.462891 0.015625)"/>
     </g>
    </g>
   </g>
   <g id="line2d_29">
    <path d="M 75.854265 221.897171 
L 77.464308 241.074963 
L 79.074351 256.599175 
L 80.684394 268.744096 
L 81.489416 273.672246 
L 82.294437 277.907608 
L 83.099459 281.500761 
L 83.90448 284.498459 
L 84.709502 286.942382 
L 85.514523 288.868284 
L 86.319545 290.305451 
L 87.124566 291.276361 
L 87.929588 291.796502 
L 88.734609 291.874267 
L 89.539631 291.510919 
L 90.344652 290.700577 
L 91.149674 289.430254 
L 91.954695 287.679921 
L 92.759717 285.422668 
L 93.564738 282.624974 
L 94.36976 279.247173 
L 95.174781 275.244184 
L 95.979803 270.566603 
L 96.784824 265.162279 
L 98.394867 251.964634 
L 100.00491 235.278618 
L 101.614953 214.902229 
L 103.224996 190.978146 
L 105.640061 150.117164 
L 108.055125 108.227113 
L 109.665168 83.807301 
L 110.47019 73.701901 
L 111.275211 65.440188 
L 112.080233 59.299914 
L 112.885254 55.494944 
L 113.690276 54.160948 
L 114.495297 55.346053 
L 115.300319 59.007488 
L 116.10534 65.014569 
L 116.910362 73.15771 
L 117.715383 83.162477 
L 119.325426 107.442462 
L 125.765598 214.242227 
L 127.375641 234.728018 
L 128.985684 251.521759 
L 130.595727 264.817928 
L 132.20577 274.986192 
L 133.010792 279.027762 
L 133.815813 282.44132 
L 134.620835 285.272241 
L 135.425856 287.560536 
L 136.230878 289.340104 
L 137.035899 290.638258 
L 137.840921 291.475437 
L 138.645942 291.865051 
L 139.450964 291.813401 
L 140.255985 291.31965 
L 141.061007 290.375825 
L 141.866028 288.966859 
L 142.67105 287.070682 
L 143.476071 284.658405 
L 144.281093 281.694644 
L 145.086114 278.138051 
L 145.891136 273.942142 
L 146.696157 269.056521 
L 147.501179 263.428606 
L 149.111222 249.739429 
L 150.721265 232.517792 
L 152.331308 211.600523 
L 153.941351 187.197367 
L 156.356415 145.944031 
L 158.77148 104.367777 
L 160.381523 80.665384 
L 161.186544 71.06978 
L 161.991566 63.405096 
L 162.796587 57.932036 
L 163.601609 54.842778 
L 164.40663 54.247985 
L 165.211652 56.169145 
L 166.016673 60.537064 
L 166.821695 67.196693 
L 167.626716 75.917743 
L 169.236759 98.34147 
L 170.846802 125.103994 
L 174.87191 193.950905 
L 176.481953 217.482147 
L 178.091996 237.42477 
L 179.702039 253.686557 
L 181.312082 266.497771 
L 182.922125 276.241661 
L 183.727146 280.093731 
L 184.532168 283.331619 
L 185.337189 285.999222 
L 186.142211 288.134818 
L 186.947232 289.770411 
L 187.752254 290.931318 
L 188.557275 291.635923 
L 189.362297 291.895555 
L 190.167318 291.714417 
L 190.97234 291.089576 
L 191.777361 290.010966 
L 192.582383 288.461451 
L 193.387404 286.416934 
L 194.192426 283.846575 
L 194.997447 280.713172 
L 195.802469 276.973766 
L 196.60749 272.580576 
L 197.412512 267.482359 
L 199.022555 254.960595 
L 200.632598 239.018299 
L 202.242641 219.405349 
L 203.852684 196.177516 
L 206.267748 155.951569 
L 209.487834 100.58751 
L 211.097877 77.663408 
L 211.902899 68.604685 
L 212.70792 61.559649 
L 213.512942 56.770479 
L 214.317963 54.406536 
L 215.122985 54.552813 
L 215.928006 57.204022 
L 216.733028 62.264971 
L 217.538049 69.557166 
L 218.343071 78.830946 
L 219.953114 102.069443 
L 222.368178 143.414664 
L 224.783243 184.879478 
L 226.393286 209.564771 
L 228.003329 230.80752 
L 229.613372 248.355307 
L 231.223415 262.345904 
L 232.833458 273.125141 
L 233.638479 277.439944 
L 234.443501 281.106711 
L 235.248522 284.172726 
L 236.053544 286.680319 
L 236.858565 288.665982 
L 237.663587 290.159787 
L 238.468608 291.185034 
L 239.27363 291.758044 
L 240.078651 291.888056 
L 240.883673 291.577178 
L 241.688694 290.820376 
L 242.493716 289.605502 
L 243.298737 287.913357 
L 244.103759 285.717835 
L 244.90878 282.986179 
L 245.713802 279.679419 
L 246.518823 275.753066 
L 247.323845 271.15816 
L 248.128866 265.842773 
L 249.738909 252.841161 
L 251.348952 236.370016 
L 252.958995 216.212751 
L 254.569038 192.486192 
L 256.984103 151.798042 
L 260.204189 96.895433 
L 261.814232 74.809699 
L 262.619253 66.313798 
L 263.424275 59.909421 
L 264.229296 55.818839 
L 265.034318 54.187588 
L 265.839339 55.074474 
L 266.644361 58.447472 
L 267.449382 64.185961 
L 268.254404 72.089061 
L 269.059425 81.889162 
L 270.669468 105.882005 
L 273.084533 147.592121 
L 275.499597 188.696864 
L 277.10964 212.912794 
L 278.719683 233.617009 
L 280.329726 250.626745 
L 281.939769 264.120961 
L 283.549812 274.463057 
L 284.354834 278.58231 
L 285.159855 282.067865 
L 285.964877 284.965665 
L 286.769898 287.316402 
L 287.57492 289.15473 
L 288.379941 290.508761 
L 289.184963 291.399758 
L 289.989984 291.84197 
L 290.795006 291.842545 
L 291.600027 291.401491 
L 292.405049 290.511681 
L 293.21007 289.158883 
L 294.015092 287.321853 
L 294.820113 284.972495 
L 295.625135 282.076173 
L 296.430156 278.59221 
L 297.235178 274.474674 
L 298.040199 269.673555 
L 298.845221 264.13642 
L 300.455264 250.646577 
L 302.065307 233.641603 
L 303.67535 212.942189 
L 305.285393 188.730501 
L 307.700457 147.629197 
L 310.115522 105.916219 
L 311.725565 81.916949 
L 312.530586 72.112296 
L 313.335608 64.203871 
L 314.140629 58.45944 
L 314.945651 55.080075 
L 315.750672 54.186619 
L 316.555694 55.811336 
L 317.360715 59.895654 
L 318.165737 66.294252 
L 318.970758 74.785041 
L 319.77578 85.083964 
L 321.385823 109.770046 
L 327.020973 204.738963 
L 328.631016 226.728616 
L 330.241059 245.036939 
L 331.851102 259.737144 
L 333.461145 271.145249 
L 334.266167 275.741967 
L 335.071188 279.669999 
L 335.87621 282.978316 
L 336.681231 285.71142 
L 337.486253 287.908296 
L 338.291274 289.601717 
L 339.096296 290.817809 
L 339.901317 291.575787 
L 340.706339 291.887819 
L 341.51136 291.758958 
L 342.316382 291.187112 
L 343.121403 290.163064 
L 343.926425 288.670508 
L 344.731446 286.686165 
L 345.536468 284.179979 
L 346.341489 281.115475 
L 347.146511 277.450335 
L 347.951532 273.137288 
L 348.756554 268.125415 
L 349.561575 262.361973 
L 351.171618 248.37582 
L 352.781661 230.832827 
L 354.391704 209.594842 
L 356.001747 184.913642 
L 358.416812 143.451785 
L 360.831876 102.102948 
L 362.441919 78.857483 
L 363.246941 69.578911 
L 364.051962 62.281191 
L 364.856984 57.214154 
L 365.662005 54.556494 
L 366.467027 54.403634 
L 367.272048 56.761098 
L 368.07707 61.544124 
L 368.882091 68.583561 
L 369.687113 77.637397 
L 371.297156 100.554315 
L 373.71222 141.728026 
L 376.127285 183.322438 
L 377.737328 208.192243 
L 379.347371 229.650963 
L 380.957414 247.41687 
L 382.567457 261.609989 
L 384.1775 272.568212 
L 384.982521 276.963174 
L 385.787543 280.704222 
L 386.592564 283.839148 
L 387.397586 286.410925 
L 388.202607 288.456772 
L 389.007629 290.007544 
L 389.81265 291.087357 
L 390.617672 291.713367 
L 391.422693 291.895655 
L 392.227715 291.637176 
L 393.032736 290.933744 
L 393.837758 289.774049 
L 394.642779 288.139724 
L 395.447801 286.005472 
L 396.252822 283.339305 
L 397.057844 280.102959 
L 397.862865 276.252554 
L 398.667887 271.739588 
L 399.472908 266.512392 
L 401.082951 253.705448 
L 402.692994 237.448364 
L 404.303037 217.510574 
L 405.91308 193.983751 
L 408.328145 153.476422 
L 411.548231 98.374182 
L 413.158274 75.942956 
L 413.963295 67.216884 
L 414.768317 60.551546 
L 415.573338 56.177409 
L 416.37836 54.249735 
L 417.183381 54.83795 
L 417.988403 57.920805 
L 418.793424 63.387861 
L 419.598446 71.047139 
L 420.403467 80.638093 
L 422.01351 104.333839 
L 424.428575 145.906929 
L 426.843639 187.163513 
L 428.453682 211.570854 
L 430.063725 232.492911 
L 431.673768 249.719323 
L 433.283811 263.412902 
L 434.893854 273.930312 
L 435.698876 278.127954 
L 436.503897 281.686153 
L 437.308919 284.651405 
L 438.11394 287.065072 
L 438.918962 288.962556 
L 439.723983 290.372762 
L 440.529005 291.317778 
L 441.334026 291.81269 
L 442.139048 291.865489 
L 442.944069 291.477032 
L 443.749091 290.641035 
L 444.554112 289.344108 
L 445.359134 287.565829 
L 446.164155 285.278903 
L 446.969177 282.449447 
L 447.774198 279.037466 
L 448.57922 274.997599 
L 449.384241 270.280241 
L 450.189263 264.833144 
L 451.799306 251.541319 
L 453.409349 234.752324 
L 455.019392 214.271346 
L 456.629435 190.253669 
L 459.044499 149.312965 
L 461.459564 107.47694 
L 463.069607 83.190748 
L 463.874628 73.181527 
L 464.67965 65.033146 
L 465.484671 59.020186 
L 466.289693 55.352423 
L 467.094714 54.160761 
L 467.899736 55.488207 
L 468.704757 59.286868 
L 469.509779 65.421295 
L 470.3148 73.677809 
L 471.119822 83.778804 
L 472.729865 108.192513 
L 477.559994 190.944838 
L 477.559994 190.944838 
" clip-path="url(#pf192ab2476)" style="fill: none; stroke: #1f77b4; stroke-width: 1.5; stroke-linecap: square"/>
   </g>
   <g id="line2d_30">
    <path d="M 75.854265 198.023775 
L 79.074351 213.847117 
L 80.684394 220.936709 
L 82.294437 227.097865 
L 83.90448 232.090341 
L 84.709502 234.085817 
L 85.514523 235.720586 
L 86.319545 236.978858 
L 87.124566 237.848499 
L 87.929588 238.321132 
L 88.734609 238.392208 
L 89.539631 238.061042 
L 90.344652 237.330821 
L 91.149674 236.208579 
L 91.954695 234.705131 
L 92.759717 232.834991 
L 93.564738 230.616244 
L 95.174781 225.22217 
L 96.784824 218.732393 
L 99.199889 207.507855 
L 104.835039 179.711784 
L 106.445082 172.795133 
L 108.055125 166.878994 
L 109.665168 162.206611 
L 110.47019 160.399369 
L 111.275211 158.971027 
L 112.080233 157.936447 
L 112.885254 157.306404 
L 113.690276 157.087466 
L 114.495297 157.281918 
L 115.300319 157.88773 
L 116.10534 158.898587 
L 116.910362 160.30396 
L 117.715383 162.089226 
L 118.520405 164.235835 
L 120.130448 169.520567 
L 121.740491 175.940283 
L 123.350534 183.231742 
L 126.57062 199.220485 
L 129.790706 214.936381 
L 131.400749 221.906216 
L 133.010792 227.90971 
L 134.620835 232.71298 
L 135.425856 234.604325 
L 136.230878 236.129952 
L 137.035899 237.275133 
L 137.840921 238.028828 
L 138.645942 238.383779 
L 139.450964 238.336569 
L 140.255985 237.887653 
L 141.061007 237.041352 
L 141.866028 235.805817 
L 142.67105 234.192963 
L 143.476071 232.218367 
L 145.086114 227.263736 
L 146.696157 221.133978 
L 148.3062 214.068069 
L 150.721265 202.328618 
L 154.746372 182.34101 
L 156.356415 175.13694 
L 157.966458 168.837467 
L 159.576501 163.70108 
L 160.381523 161.637351 
L 161.186544 159.939658 
L 161.991566 158.625645 
L 162.796587 157.70899 
L 163.601609 157.199244 
L 164.40663 157.101721 
L 165.211652 157.417437 
L 166.016673 158.143101 
L 166.821695 159.27115 
L 167.626716 160.789836 
L 168.431738 162.683363 
L 169.236759 164.932066 
L 170.846802 170.398391 
L 172.456845 176.963611 
L 174.87191 188.2744 
L 180.50706 216.010638 
L 182.117103 222.854799 
L 183.727146 228.695567 
L 185.337189 233.305605 
L 186.142211 235.09124 
L 186.947232 236.506453 
L 187.752254 237.537588 
L 188.557275 238.17471 
L 189.362297 238.411683 
L 190.167318 238.246227 
L 190.97234 237.679934 
L 191.777361 236.718257 
L 192.582383 235.37046 
L 193.387404 233.649545 
L 194.192426 231.572142 
L 195.802469 226.431637 
L 197.412512 220.148357 
L 199.022555 212.967491 
L 202.242641 197.068143 
L 205.462727 181.237066 
L 207.07277 174.148188 
L 208.682813 168.00438 
L 210.292856 163.057955 
L 211.097877 161.099714 
L 211.902899 159.513093 
L 212.70792 158.314592 
L 213.512942 157.516688 
L 214.317963 157.127698 
L 215.122985 157.151676 
L 215.928006 157.588373 
L 216.733028 158.433236 
L 217.538049 159.677461 
L 218.343071 161.308095 
L 219.148092 163.308184 
L 220.758135 168.330119 
L 222.368178 174.536024 
L 223.978221 181.671119 
L 226.393286 193.472327 
L 230.418393 213.403502 
L 232.028436 220.539721 
L 233.638479 226.763038 
L 235.248522 231.83069 
L 236.053544 233.867721 
L 236.858565 235.546154 
L 237.663587 236.849773 
L 238.468608 237.766005 
L 239.27363 238.286023 
L 240.078651 238.404822 
L 240.883673 238.121258 
L 241.688694 237.438059 
L 242.493716 236.361806 
L 243.298737 234.902869 
L 244.103759 233.075331 
L 244.90878 230.896859 
L 246.518823 225.574795 
L 248.128866 219.143298 
L 249.738909 211.853584 
L 252.958995 195.871325 
L 256.179081 180.147317 
L 257.789124 173.179898 
L 259.399167 167.197219 
L 261.00921 162.445179 
L 261.814232 160.594182 
L 262.619253 159.12006 
L 263.424275 158.038148 
L 264.229296 157.359713 
L 265.034318 157.091829 
L 265.839339 157.237287 
L 266.644361 157.794572 
L 267.449382 158.757873 
L 268.254404 160.117155 
L 269.059425 161.858272 
L 269.864447 163.96313 
L 271.47449 169.173235 
L 273.084533 175.53261 
L 274.694576 182.780398 
L 277.914662 198.737673 
L 281.134748 214.49856 
L 282.744791 221.517441 
L 284.354834 227.585177 
L 285.964877 232.465295 
L 286.769898 234.398858 
L 287.57492 235.968688 
L 288.379941 237.159628 
L 289.184963 237.960194 
L 289.989984 238.362676 
L 290.795006 238.363202 
L 291.600027 237.961765 
L 292.405049 237.162229 
L 293.21007 235.972295 
L 294.015092 234.403436 
L 294.820113 232.470799 
L 296.430156 227.592365 
L 298.040199 221.526034 
L 299.650242 214.508222 
L 302.065307 202.807963 
L 306.090414 182.79031 
L 307.700457 175.541549 
L 309.3105 169.180836 
L 310.920543 163.969081 
L 311.725565 161.8633 
L 312.530586 160.121209 
L 313.335608 158.76091 
L 314.140629 157.796561 
L 314.945651 157.238207 
L 315.750672 157.09167 
L 316.555694 157.358478 
L 317.360715 158.035848 
L 318.165737 159.11672 
L 318.970758 160.589837 
L 319.77578 162.439874 
L 320.580801 164.647614 
L 322.190844 170.041235 
L 323.800887 176.548431 
L 326.215952 187.804497 
L 331.851102 215.578984 
L 333.461145 222.474566 
L 335.071188 228.381603 
L 336.681231 233.070094 
L 337.486253 234.898573 
L 338.291274 236.358491 
L 339.096296 237.435759 
L 339.901317 238.119993 
L 340.706339 238.404605 
L 341.51136 238.286857 
L 342.316382 237.767881 
L 343.121403 236.852673 
L 343.926425 235.55005 
L 344.731446 233.872576 
L 345.536468 231.836456 
L 347.146511 226.770451 
L 348.756554 220.548494 
L 350.366597 213.413289 
L 352.781661 201.618919 
L 356.806769 181.680912 
L 358.416812 174.544788 
L 360.026855 168.337496 
L 361.636898 163.31387 
L 362.441919 161.312842 
L 363.246941 159.68122 
L 364.051962 158.435968 
L 364.856984 157.59005 
L 365.662005 157.152279 
L 366.467027 157.127222 
L 367.272048 157.515138 
L 368.07707 158.311984 
L 368.882091 159.509454 
L 369.687113 161.095082 
L 370.492134 163.052378 
L 372.102177 167.997096 
L 373.71222 174.139497 
L 375.322263 181.227323 
L 377.737328 192.99183 
L 381.762435 212.957655 
L 383.372478 220.139514 
L 384.982521 226.424135 
L 386.592564 231.566272 
L 387.397586 233.64458 
L 388.202607 235.366448 
L 389.007629 236.715237 
L 389.81265 237.677936 
L 390.617672 238.245269 
L 391.422693 238.411775 
L 392.227715 238.175851 
L 393.032736 237.539767 
L 393.837758 236.509648 
L 394.642779 235.095422 
L 395.447801 233.310733 
L 396.252822 231.172833 
L 397.862865 225.923508 
L 399.472908 219.551177 
L 401.082951 212.304648 
L 404.303037 196.354195 
L 407.523123 180.585318 
L 409.133166 173.568137 
L 410.743209 167.519785 
L 412.353252 162.688778 
L 413.158274 160.794297 
L 413.963295 159.274611 
L 414.768317 158.145526 
L 415.573338 157.4188 
L 416.37836 157.102007 
L 417.183381 157.198452 
L 417.988403 157.707127 
L 418.793424 158.622731 
L 419.598446 159.935722 
L 420.403467 161.632436 
L 421.208489 163.695236 
L 422.818532 168.829956 
L 424.428575 175.12807 
L 426.038618 182.331145 
L 429.258704 198.254683 
L 432.47879 214.058355 
L 434.088833 221.125312 
L 435.698876 227.256457 
L 437.308919 232.212757 
L 438.11394 234.188274 
L 438.918962 235.802093 
L 439.723983 237.03863 
L 440.529005 237.885959 
L 441.334026 238.335919 
L 442.139048 238.384179 
L 442.944069 238.030275 
L 443.749091 237.277613 
L 444.554112 236.133442 
L 445.359134 234.60879 
L 446.164155 232.718376 
L 447.774198 227.916805 
L 449.384241 221.914735 
L 450.994284 214.94599 
L 453.409349 203.286557 
L 458.239478 179.504494 
L 459.849521 172.612461 
L 461.459564 166.728432 
L 463.069607 162.094366 
L 463.874628 160.308132 
L 464.67965 158.901747 
L 465.484671 157.889844 
L 466.289693 157.282965 
L 467.094714 157.087436 
L 467.899736 157.305295 
L 468.704757 157.934272 
L 469.509779 158.967809 
L 470.3148 160.395141 
L 471.119822 162.201418 
L 471.924843 164.367872 
L 473.534886 169.688005 
L 475.144929 176.136236 
L 477.559994 187.335967 
L 477.559994 187.335967 
" clip-path="url(#pf192ab2476)" style="fill: none; stroke: #ff7f0e; stroke-width: 1.5; stroke-linecap: square"/>
   </g>
   <g id="patch_3">
    <path d="M 54.39024 303.7824 
L 54.39024 10.7136 
" style="fill: none; stroke: #000000; stroke-width: 0.8; stroke-linejoin: miter; stroke-linecap: square"/>
   </g>
   <g id="patch_4">
    <path d="M 497.64528 303.7824 
L 497.64528 10.7136 
" style="fill: none; stroke: #000000; stroke-width: 0.8; stroke-linejoin: miter; stroke-linecap: square"/>
   </g>
   <g id="patch_5">
    <path d="M 54.39024 303.7824 
L 497.64528 303.7824 
" style="fill: none; stroke: #000000; stroke-width: 0.8; stroke-linejoin: miter; stroke-linecap: square"/>
   </g>
   <g id="patch_6">
    <path d="M 54.39024 10.7136 
L 497.64528 10.7136 
" style="fill: none; stroke: #000000; stroke-width: 0.8; stroke-linejoin: miter; stroke-linecap: square"/>
   </g>
   <g id="legend_1">
    <g id="patch_7">
     <path d="M 384.809342 48.06985 
L 490.64528 48.06985 
Q 492.64528 48.06985 492.64528 46.06985 
L 492.64528 17.7136 
Q 492.64528 15.7136 490.64528 15.7136 
L 384.809342 15.7136 
Q 382.809342 15.7136 382.809342 17.7136 
L 382.809342 46.06985 
Q 382.809342 48.06985 384.809342 48.06985 
z
" style="fill: #ffffff; opacity: 0.8; stroke: #cccccc; stroke-linejoin: miter"/>
    </g>
    <g id="line2d_31">
     <path d="M 386.809342 23.812037 
L 396.809342 23.812037 
L 406.809342 23.812037 
" style="fill: none; stroke: #1f77b4; stroke-width: 1.5; stroke-linecap: square"/>
    </g>
    <g id="text_17">
     <!-- Pointe parfaite -->
     <g transform="translate(414.809342 27.312037)scale(0.1 -0.1)">
      <defs>
       <path id="DejaVuSans-70" d="M 1159 525 
L 1159 -1331 
L 581 -1331 
L 581 3500 
L 1159 3500 
L 1159 2969 
Q 1341 3281 1617 3432 
Q 1894 3584 2278 3584 
Q 2916 3584 3314 3078 
Q 3713 2572 3713 1747 
Q 3713 922 3314 415 
Q 2916 -91 2278 -91 
Q 1894 -91 1617 61 
Q 1341 213 1159 525 
z
M 3116 1747 
Q 3116 2381 2855 2742 
Q 2594 3103 2138 3103 
Q 1681 3103 1420 2742 
Q 1159 2381 1159 1747 
Q 1159 1113 1420 752 
Q 1681 391 2138 391 
Q 2594 391 2855 752 
Q 3116 1113 3116 1747 
z
" transform="scale(0.015625)"/>
       <path id="DejaVuSans-66" d="M 2375 4863 
L 2375 4384 
L 1825 4384 
Q 1516 4384 1395 4259 
Q 1275 4134 1275 3809 
L 1275 3500 
L 2222 3500 
L 2222 3053 
L 1275 3053 
L 1275 0 
L 697 0 
L 697 3053 
L 147 3053 
L 147 3500 
L 697 3500 
L 697 3744 
Q 697 4328 969 4595 
Q 1241 4863 1831 4863 
L 2375 4863 
z
" transform="scale(0.015625)"/>
      </defs>
      <use xlink:href="#DejaVuSans-50"/>
      <use xlink:href="#DejaVuSans-6f" x="56.677734"/>
      <use xlink:href="#DejaVuSans-69" x="117.859375"/>
      <use xlink:href="#DejaVuSans-6e" x="145.642578"/>
      <use xlink:href="#DejaVuSans-74" x="209.021484"/>
      <use xlink:href="#DejaVuSans-65" x="248.230469"/>
      <use xlink:href="#DejaVuSans-20" x="309.753906"/>
      <use xlink:href="#DejaVuSans-70" x="341.541016"/>
      <use xlink:href="#DejaVuSans-61" x="405.017578"/>
      <use xlink:href="#DejaVuSans-72" x="466.296875"/>
      <use xlink:href="#DejaVuSans-66" x="507.410156"/>
      <use xlink:href="#DejaVuSans-61" x="542.615234"/>
      <use xlink:href="#DejaVuSans-69" x="603.894531"/>
      <use xlink:href="#DejaVuSans-74" x="631.677734"/>
      <use xlink:href="#DejaVuSans-65" x="670.886719"/>
     </g>
    </g>
    <g id="line2d_32">
     <path d="M 386.809342 38.490162 
L 396.809342 38.490162 
L 406.809342 38.490162 
" style="fill: none; stroke: #ff7f0e; stroke-width: 1.5; stroke-linecap: square"/>
    </g>
    <g id="text_18">
     <!-- Profil circulaire -->
     <g transform="translate(414.809342 41.990162)scale(0.1 -0.1)">
      <use xlink:href="#DejaVuSans-50"/>
      <use xlink:href="#DejaVuSans-72" x="58.552734"/>
      <use xlink:href="#DejaVuSans-6f" x="97.416016"/>
      <use xlink:href="#DejaVuSans-66" x="158.597656"/>
      <use xlink:href="#DejaVuSans-69" x="193.802734"/>
      <use xlink:href="#DejaVuSans-6c" x="221.585938"/>
      <use xlink:href="#DejaVuSans-20" x="249.369141"/>
      <use xlink:href="#DejaVuSans-63" x="281.15625"/>
      <use xlink:href="#DejaVuSans-69" x="336.136719"/>
      <use xlink:href="#DejaVuSans-72" x="363.919922"/>
      <use xlink:href="#DejaVuSans-63" x="402.783203"/>
      <use xlink:href="#DejaVuSans-75" x="457.763672"/>
      <use xlink:href="#DejaVuSans-6c" x="521.142578"/>
      <use xlink:href="#DejaVuSans-61" x="548.925781"/>
      <use xlink:href="#DejaVuSans-69" x="610.205078"/>
      <use xlink:href="#DejaVuSans-72" x="637.988281"/>
      <use xlink:href="#DejaVuSans-65" x="676.851562"/>
     </g>
    </g>
   </g>
  </g>
 </g>
 <defs>
  <clipPath id="pf192ab2476">
   <rect x="54.39024" y="10.7136" width="443.25504" height="293.0688"/>
  </clipPath>
 </defs>
</svg>
